<svg width="115" height="115" viewBox="0 0 115 115" fill="none" xmlns="http://www.w3.org/2000/svg">
<rect x="1" y="1" width="113" height="113" rx="5" fill="white" stroke="#EAEAEC" stroke-width="2"/>
<g clip-path="url(#clip0_130_85)">
<path d="M46.7179 67.9002C43.7162 67.9002 41.0462 65.9782 40.0765 63.1169L40.011 62.9013C39.7823 62.1436 39.6865 61.5063 39.6865 60.8688V48.0845L35.1377 63.2687C34.5526 65.502 35.8858 67.8175 38.1226 68.4344L67.1167 76.1992C67.4694 76.291 67.8323 76.3376 68.1967 76.3379C70.0641 76.3379 71.7704 75.0985 72.2487 73.2719L73.938 67.9002H46.7179ZM51.8744 48.2122C53.9427 48.2122 55.6242 46.5302 55.6242 44.462C55.6242 42.3938 53.9427 40.7118 51.8744 40.7118C49.8061 40.7118 48.1242 42.3939 48.1242 44.462C48.1242 46.5301 49.8062 48.2122 51.8744 48.2122Z" fill="#82848F" fill-opacity="0.5"/>
<path d="M75.3122 35.0866H47.1865C44.603 35.0866 42.499 37.1906 42.499 39.7745V60.3998C42.499 62.9837 44.603 65.0876 47.1865 65.0876H75.3122C77.8962 65.0876 80.0001 62.9837 80.0001 60.3998V39.7745C80.0001 37.1906 77.8962 35.0866 75.3122 35.0866ZM47.1865 38.8368H75.3122C75.83 38.8368 76.2499 39.2568 76.2499 39.7745V53.0854L70.3268 46.1739C69.6984 45.437 68.789 45.0432 67.8122 45.021C66.8409 45.0264 65.9297 45.4576 65.3072 46.204L58.3431 54.5628L56.0743 52.2995C54.792 51.0172 52.705 51.0172 51.4243 52.2995L46.2492 57.4729V39.7744C46.2492 39.2567 46.6692 38.8368 47.1865 38.8368Z" fill="#82848F" fill-opacity="0.5"/>
</g>
<defs>
<clipPath id="clip0_130_85">
<rect width="45" height="45" fill="white" transform="translate(35 35)"/>
</clipPath>
</defs>
</svg>
