<svg width="30" height="30" viewBox="0 0 30 30" fill="none" xmlns="http://www.w3.org/2000/svg">
<rect width="30" height="30" rx="15" fill="#FF6153"/>
<g clip-path="url(#clip0_198_273)">
<path fill-rule="evenodd" clip-rule="evenodd" d="M12.527 18.9225H10.769L10.6766 18.2432C10.5174 17.0309 9.87791 15.911 8.82197 15.6609C8.54342 15.5685 8.23786 15.5116 7.94794 15.5116C7.6637 15.5116 7.40789 15.5543 7.16202 15.6424C6.38037 15.9195 5.67119 16.6258 5.67972 17.5269C5.68398 17.8495 5.7792 18.0413 5.94264 18.2119C6.07055 18.3455 6.25814 18.3995 6.41163 18.3469C6.66603 18.2602 6.78541 17.9547 6.87778 17.443L7.16202 15.6424C8.06447 16.1597 8.53631 17.0337 8.49083 17.9177C8.49083 17.9168 8.49083 17.9163 8.49083 17.9163C8.33024 18.7079 7.98773 19.5734 6.95595 19.9287C6.73851 20.004 6.51396 20.0395 6.28941 20.0395C5.71667 20.0395 5.14962 19.8036 4.73179 19.3673C4.27132 18.8841 4.01409 18.2957 4.00698 17.5425C3.98993 15.7404 5.47649 14.1288 7.39083 13.8744C7.41073 13.8716 7.4292 13.8716 7.44768 13.8687L8.3146 8.4668H10.8486L12.527 18.9225ZM10.1749 14.4315L9.61215 10.1182H9.54962L9.04652 13.9839C9.43734 14.0848 9.81822 14.2368 10.1749 14.4315ZM24.1538 11.3817H25.9075V18.9211H24.1538V11.3817ZM19.0119 20.9107C18.7063 20.5753 18.5514 20.1134 18.5514 19.5407V19.5052H20.3208V19.5265C20.3208 20.1149 20.76 20.1603 20.895 20.1603C21.4848 20.1603 21.5302 19.6388 21.5302 18.8997V17.8211L21.4251 18.0371C21.2062 18.489 20.7628 18.7377 20.1773 18.7377C19.5562 18.7377 19.127 18.5174 18.8612 18.0627C18.6424 17.6889 18.5358 17.1531 18.5358 16.4269V13.495C18.5358 13.0672 18.5955 12.4589 18.8797 11.9885C19.1711 11.5053 19.6429 11.2594 20.2839 11.2594C20.9191 11.2594 21.3455 11.501 21.5146 11.9572L21.5999 12.186L21.6212 11.943C21.6482 11.6275 22.049 11.3831 22.3758 11.3831H23.284L23.2684 18.3668C23.2684 20.2214 23.0907 21.5332 20.7884 21.5332C19.9854 21.5332 19.3871 21.3229 19.0119 20.9107ZM21.499 13.7238C21.499 13.2519 21.4322 12.7687 20.9404 12.7687C20.5027 12.7687 20.2895 13.0558 20.2895 13.6485V16.2748C20.2895 16.7466 20.3578 17.2298 20.8637 17.2298C21.3981 17.2298 21.499 16.8404 21.499 16.1213V13.7238ZM25.0377 10.6767C24.5062 10.6767 24.077 10.2475 24.077 9.71602C24.077 9.18592 24.5062 8.75672 25.0377 8.75672C25.5693 8.75672 25.9985 9.18592 25.9985 9.71602C25.9985 10.2475 25.5693 10.6767 25.0377 10.6767ZM14.8407 13.8162V18.9211H13.0713L13.0557 11.3817H14.0392C14.3774 11.3817 14.7668 11.6204 14.8094 11.9757L14.8293 12.1377L14.9118 11.997C15.1974 11.5081 15.6593 11.2609 16.2846 11.2609C17.2923 11.2609 17.8039 11.9089 17.8039 13.1908V18.9225H16.0501V13.5873C16.0501 13.0444 15.8611 12.7687 15.4902 12.7687C15.0112 12.7687 14.8407 13.043 14.8407 13.8162Z" fill="white"/>
<path d="M7.16211 15.6423C7.40797 15.5542 7.66237 15.5116 7.94803 15.5116C8.23795 15.5116 8.5435 15.5684 8.82064 15.6608C8.78369 16.0886 8.57903 17.5396 8.49092 17.9177C8.5364 17.0337 8.06456 16.1597 7.16211 15.6423Z" fill="#A03027"/>
</g>
<defs>
<clipPath id="clip0_198_273">
<rect width="22" height="13.0891" fill="white" transform="translate(4 8.45544)"/>
</clipPath>
</defs>
</svg>
