<svg width="30" height="30" viewBox="0 0 30 30" fill="none" xmlns="http://www.w3.org/2000/svg">
<path d="M15 0C6.75 0 0 6.75 0 15C0 23.25 6.75 30 15 30C23.25 30 30 23.25 30 15C30 6.75 23.25 0 15 0Z" fill="#00447B"/>
<path d="M21.375 6.84379C21.2812 6.18754 20.8125 6.00005 20.0625 6.0938C14.625 6.75005 7.96875 15.75 5.625 22.3125H10.0313C10.4063 21.375 10.7812 20.4375 11.25 19.5H18.0937L18.2812 22.3125H22.6875L21.375 6.84379ZM13.3125 16.0313C14.7188 13.9688 16.125 12.2813 17.25 11.2501C17.3438 11.1563 17.5313 11.1563 17.5313 11.3438L17.9062 16.1251H13.3125V16.0313Z" fill="white"/>
</svg>
