<svg width="17" height="17" viewBox="0 0 17 17" fill="none" xmlns="http://www.w3.org/2000/svg">
<path d="M15.0505 1.59838C13.586 0.133879 11.2117 0.133879 9.74717 1.59835L6.61299 4.73253C5.09814 6.24744 5.23839 8.66119 6.61299 10.0358C6.84317 10.266 7.09786 10.4537 7.3668 10.6079L7.93883 10.0358C8.31402 9.6606 8.18195 9.22194 8.1752 8.90541C8.09286 8.84703 8.01277 8.78394 7.93883 8.71C7.23342 8.00466 7.2017 6.79547 7.93883 6.05835L11.073 2.92422C11.8042 2.193 12.9934 2.193 13.7246 2.92422C14.4558 3.65544 14.4558 4.84466 13.7246 5.57588L11.653 7.64753C11.7129 7.979 12.0724 8.76419 11.8875 10.0594C11.8965 10.0506 11.9073 10.0448 11.9163 10.0359L15.0505 6.90169C16.5149 5.43719 16.5149 3.06288 15.0505 1.59838Z" fill="#D4D4D4"/>
<path d="M9.9276 6.72129C9.69744 6.4911 9.44272 6.30342 9.17385 6.14926L8.60182 6.72129C8.22657 7.09648 8.35863 7.53514 8.36538 7.85167C8.44779 7.91004 8.52788 7.97314 8.60182 8.04707C9.30722 8.75248 9.33894 9.96161 8.60182 10.6987L5.22475 14.0758C4.49354 14.807 3.30432 14.807 2.5731 14.0758C1.84188 13.3446 1.84188 12.1554 2.5731 11.4241L4.88769 9.10954C4.82779 8.77807 4.46822 7.99289 4.65319 6.69764C4.64416 6.70651 4.63329 6.71229 4.62429 6.72126L1.24725 10.0984C-0.217184 11.5629 -0.217184 13.9372 1.24725 15.4017C2.71175 16.8661 5.08604 16.8661 6.55054 15.4017L9.9276 12.0246C11.4143 10.5379 11.3331 8.12676 9.9276 6.72129Z" fill="#D4D4D4"/>
</svg>
