<svg width="16" height="16" viewBox="0 0 16 16" fill="none" xmlns="http://www.w3.org/2000/svg">
<path fill-rule="evenodd" clip-rule="evenodd" d="M0.71959 4.78025C0.860236 4.92085 1.05097 4.99984 1.24984 4.99984C1.44871 4.99984 1.63944 4.92085 1.78009 4.78025L4.24984 2.3105L6.71959 4.78025C6.86104 4.91687 7.05049 4.99246 7.24714 4.99076C7.44379 4.98905 7.6319 4.91017 7.77095 4.77111C7.91001 4.63206 7.98889 4.44395 7.99059 4.2473C7.9923 4.05065 7.91671 3.8612 7.78009 3.71975L4.78009 0.719749C4.63944 0.579146 4.44871 0.50016 4.24984 0.50016C4.05097 0.50016 3.86024 0.579146 3.71959 0.719749L0.71959 3.71975C0.578986 3.8604 0.5 4.05113 0.5 4.25C0.5 4.44887 0.578986 4.6396 0.71959 4.78025Z" fill="black"/>
<path fill-rule="evenodd" clip-rule="evenodd" d="M4.25 11C4.44891 11 4.63968 10.9209 4.78033 10.7803C4.92098 10.6396 5 10.4489 5 10.25L5 1.24996C5 1.05104 4.92098 0.860277 4.78033 0.719625C4.63968 0.578973 4.44891 0.499955 4.25 0.499955C4.05109 0.499955 3.86032 0.578973 3.71967 0.719625C3.57902 0.860277 3.5 1.05104 3.5 1.24996L3.5 10.25C3.5 10.4489 3.57902 10.6396 3.71967 10.7803C3.86032 10.9209 4.05109 11 4.25 11ZM11.2197 15.2802C11.3604 15.4208 11.5511 15.4998 11.75 15.4998C11.9489 15.4998 12.1396 15.4208 12.2803 15.2802L15.2803 12.2802C15.4169 12.1388 15.4925 11.9493 15.4908 11.7527C15.489 11.556 15.4102 11.3679 15.2711 11.2288C15.1321 11.0898 14.9439 11.0109 14.7473 11.0092C14.5507 11.0075 14.3612 11.0831 14.2197 11.2197L11.75 13.6895L9.28025 11.2197C9.21106 11.1481 9.12831 11.0909 9.0368 11.0516C8.9453 11.0123 8.84689 10.9916 8.7473 10.9908C8.64772 10.9899 8.54896 11.0089 8.45678 11.0466C8.36461 11.0843 8.28087 11.14 8.21045 11.2104C8.14003 11.2808 8.08434 11.3646 8.04663 11.4567C8.00892 11.5489 7.98995 11.6477 7.99081 11.7473C7.99168 11.8468 8.01237 11.9453 8.05167 12.0368C8.09098 12.1283 8.14812 12.211 8.21975 12.2802L11.2197 15.2802Z" fill="black"/>
<path fill-rule="evenodd" clip-rule="evenodd" d="M11.75 15.5C11.9489 15.5 12.1397 15.421 12.2803 15.2803C12.421 15.1397 12.5 14.9489 12.5 14.75L12.5 5.75C12.5 5.55109 12.421 5.36032 12.2803 5.21967C12.1397 5.07902 11.9489 5 11.75 5C11.5511 5 11.3603 5.07902 11.2197 5.21967C11.079 5.36032 11 5.55109 11 5.75L11 14.75C11 14.9489 11.079 15.1397 11.2197 15.2803C11.3603 15.421 11.5511 15.5 11.75 15.5Z" fill="black"/>
</svg>
