<svg width="14" height="18" viewBox="0 0 14 18" fill="none" xmlns="http://www.w3.org/2000/svg">
<path fill-rule="evenodd" clip-rule="evenodd" d="M4.33753 0.499757C4.33755 0.367339 4.38431 0.240349 4.46751 0.146692C4.55072 0.0530354 4.66357 0.00037444 4.78128 0.000281256L9.2185 0C9.33623 0.00030706 9.44905 0.0531139 9.53223 0.146846C9.61541 0.240578 9.66216 0.367589 9.66225 0.500039V1.73465H4.33753V0.499757ZM11.6332 17.2852C11.6219 17.4799 11.5448 17.6624 11.4179 17.7952C11.2909 17.9281 11.1236 18.0013 10.9502 18H2.99859C2.82523 17.9995 2.65847 17.9252 2.53179 17.792C2.40511 17.6589 2.3279 17.4768 2.31565 17.2822L1.63521 6.08407H12.3594L11.6333 17.2851L11.6332 17.2852ZM13.4009 5.06986H0.599121V3.90967C0.599311 3.60197 0.708031 3.30693 0.90141 3.08933C1.09479 2.87172 1.35702 2.74935 1.63053 2.74907L12.3694 2.74868C12.6429 2.74916 12.905 2.87164 13.0984 3.08927C13.2917 3.30689 13.4004 3.60189 13.4007 3.90957V5.06975L13.4009 5.06986ZM4.93875 15.3305C4.93875 15.3971 4.9504 15.463 4.97305 15.5245C4.9957 15.586 5.0289 15.6419 5.07075 15.689C5.1126 15.7361 5.16228 15.7734 5.21696 15.7989C5.27164 15.8244 5.33025 15.8375 5.38943 15.8375C5.44862 15.8375 5.50722 15.8244 5.5619 15.7989C5.61658 15.7734 5.66627 15.7361 5.70812 15.689C5.74997 15.6419 5.78316 15.586 5.80581 15.5245C5.82846 15.463 5.84012 15.3971 5.84012 15.3305V8.22007C5.83917 8.08635 5.7913 7.95846 5.70693 7.86427C5.62256 7.77007 5.50853 7.71719 5.38967 7.71715C5.2708 7.7171 5.15674 7.76989 5.07231 7.86402C4.98788 7.95815 4.93993 8.086 4.9389 8.21972V15.3305H4.93875ZM8.15437 15.3305C8.15437 15.465 8.20186 15.5939 8.28639 15.689C8.37092 15.7842 8.48558 15.8376 8.60512 15.8376C8.72467 15.8376 8.83932 15.7842 8.92385 15.689C9.00838 15.5939 9.05587 15.465 9.05587 15.3305V8.22007C9.05492 8.08633 9.00705 7.95843 8.92266 7.86422C8.83828 7.77001 8.72423 7.71712 8.60535 7.71708C8.48647 7.71703 8.37239 7.76983 8.28795 7.86397C8.20351 7.95811 8.15556 8.08598 8.15453 8.21972L8.15437 15.3305Z" fill="#EA5563"/>
</svg>
