<svg width="30" height="30" viewBox="0 0 30 30" fill="none" xmlns="http://www.w3.org/2000/svg">
<path d="M15 30C23.2843 30 30 23.2843 30 15C30 6.71573 23.2843 0 15 0C6.71573 0 0 6.71573 0 15C0 23.2843 6.71573 30 15 30Z" fill="#EE3546"/>
<g clip-path="url(#clip0_198_79)">
<path d="M24.2259 13.0075C23.792 12.1925 23.1439 11.5113 22.3516 11.0373C21.5592 10.5633 20.6525 10.3144 19.7292 10.3175H5.48672C5.39024 10.3183 5.29614 10.3476 5.21618 10.4016C5.13622 10.4555 5.07394 10.5319 5.03713 10.6211C5.00032 10.7103 4.99061 10.8083 5.00921 10.903C5.02781 10.9977 5.0739 11.0847 5.14172 11.1534L8.24505 14.275C8.38074 14.4113 8.54203 14.5195 8.71965 14.5933C8.89727 14.6671 9.08772 14.7051 9.28005 14.705H19.3209C19.6643 14.7016 19.9951 14.8348 20.2404 15.0752C20.4857 15.3156 20.6254 15.6437 20.6288 15.9871C20.6322 16.3306 20.4991 16.6613 20.2586 16.9066C20.0182 17.1519 19.6902 17.2916 19.3467 17.295H12.4251C12.3285 17.2957 12.2343 17.3248 12.1542 17.3787C12.0741 17.4326 12.0117 17.509 11.9748 17.5982C11.9379 17.6874 11.9281 17.7855 11.9467 17.8803C11.9652 17.975 12.0114 18.0622 12.0792 18.1309L15.1834 21.2534C15.319 21.3898 15.4803 21.498 15.6579 21.5718C15.8356 21.6456 16.026 21.6835 16.2184 21.6834H19.3492C23.4217 21.6834 26.5026 17.3292 24.2259 13.0059" fill="white"/>
</g>
<defs>
<clipPath id="clip0_198_79">
<rect width="20" height="20" fill="white" transform="translate(5 6)"/>
</clipPath>
</defs>
</svg>
