<svg width="24" height="24" viewBox="0 0 24 24" fill="none" xmlns="http://www.w3.org/2000/svg">
<path d="M11.2902 15.71C11.3853 15.801 11.4974 15.8724 11.6202 15.92C11.7399 15.9729 11.8693 16.0002 12.0002 16.0002C12.1311 16.0002 12.2605 15.9729 12.3802 15.92C12.5029 15.8724 12.6151 15.801 12.7102 15.71L16.7102 11.71C16.8985 11.5217 17.0043 11.2663 17.0043 11C17.0043 10.7337 16.8985 10.4783 16.7102 10.29C16.5219 10.1017 16.2665 9.99591 16.0002 9.99591C15.7339 9.99591 15.4785 10.1017 15.2902 10.29L13.0002 12.59V4C13.0002 3.73478 12.8948 3.48043 12.7073 3.29289C12.5198 3.10536 12.2654 3 12.0002 3C11.735 3 11.4806 3.10536 11.2931 3.29289C11.1055 3.48043 11.0002 3.73478 11.0002 4V12.59L8.71019 10.29C8.61695 10.1968 8.50626 10.1228 8.38444 10.0723C8.26261 10.0219 8.13204 9.99591 8.00019 9.99591C7.86833 9.99591 7.73776 10.0219 7.61594 10.0723C7.49411 10.1228 7.38342 10.1968 7.29019 10.29C7.19695 10.3832 7.12299 10.4939 7.07253 10.6158C7.02207 10.7376 6.99609 10.8681 6.99609 11C6.99609 11.1319 7.02207 11.2624 7.07253 11.3842C7.12299 11.5061 7.19695 11.6168 7.29019 11.71L11.2902 15.71Z" fill="#38485B"/>
<path d="M20 15C19.7348 15 19.4804 15.1054 19.2929 15.2929C19.1054 15.4804 19 15.7348 19 16V19H5V16C5 15.7348 4.89464 15.4804 4.70711 15.2929C4.51957 15.1054 4.26522 15 4 15C3.73478 15 3.48043 15.1054 3.29289 15.2929C3.10536 15.4804 3 15.7348 3 16V20C3 20.2652 3.10536 20.5196 3.29289 20.7071C3.48043 20.8946 3.73478 21 4 21H20C20.2652 21 20.5196 20.8946 20.7071 20.7071C20.8946 20.5196 21 20.2652 21 20V16C21 15.7348 20.8946 15.4804 20.7071 15.2929C20.5196 15.1054 20.2652 15 20 15Z" fill="#38485B"/>
</svg>
