<svg width="30" height="30" viewBox="0 0 30 30" fill="none" xmlns="http://www.w3.org/2000/svg">
<g clip-path="url(#clip0_198_146)">
<path d="M15 30C23.2843 30 30 23.2843 30 15C30 6.71573 23.2843 0 15 0C6.71573 0 0 6.71573 0 15C0 23.2843 6.71573 30 15 30Z" fill="#EE539E"/>
<path d="M9.37668 6.48914H23.1484C23.3315 6.48914 23.4713 6.65279 23.4428 6.83367L21.5701 18.694C21.5472 18.8389 21.4224 18.9456 21.2757 18.9456H16.4221C16.343 18.9456 16.2672 18.977 16.2113 19.0329L9.58744 25.6568C9.39971 25.8446 9.07861 25.7116 9.07861 25.4461V6.78714C9.07861 6.62255 9.21209 6.48914 9.37668 6.48914Z" fill="white"/>
<path d="M11.4148 8.44568H20.7498C20.8227 8.44568 20.8784 8.51066 20.8673 8.58255L20.3921 11.6709C20.3832 11.7289 20.3333 11.7717 20.2746 11.7717H16.6412C16.1312 11.7717 15.6904 12.1627 15.6666 12.6722C15.6413 13.214 16.0749 13.663 16.6112 13.663H19.9471C20.02 13.663 20.0757 13.728 20.0646 13.7999L19.5894 16.8882C19.5805 16.9462 19.5306 16.989 19.472 16.989H14.9961C14.9953 16.989 14.9946 16.9894 14.994 16.9899L11.5017 20.7318C11.428 20.8107 11.2959 20.7586 11.2959 20.6507V8.56451C11.296 8.49888 11.3492 8.44568 11.4148 8.44568Z" fill="#EE539E"/>
</g>
<defs>
<clipPath id="clip0_198_146">
<rect width="30" height="30" fill="white"/>
</clipPath>
</defs>
</svg>
