<svg width="37" height="36" viewBox="0 0 37 36" fill="none" xmlns="http://www.w3.org/2000/svg">
<g clip-path="url(#clip0_112_725)">
<path d="M2.00781 9.5625L18.8828 18L35.7578 9.5625V27.5625L18.8828 35.9998L2.00781 27.5623V9.5625Z" fill="#DE4033"/>
<path d="M2.00781 11.2499V16.5093L18.8265 24.7499L35.7577 16.4812V11.2499L18.8828 19.5188L2.00781 11.2499Z" fill="#CF382D"/>
<path d="M18.8828 35.9999V18.0001L3.13282 10.1251H2.00781V27.5626L18.8828 35.9999Z" fill="#CA3123"/>
<path d="M2.00781 11.2499V16.5093L18.8265 24.7499L18.8828 24.7218V19.4906V19.5187L2.00781 11.2499Z" fill="#BB392E"/>
<path d="M0.882812 8.97187L18.8828 0L36.8828 8.97187V10.1531L18.8828 19.1248L0.882812 10.1812V8.97187Z" fill="#F05348"/>
<path d="M29.2047 2.84065C28.614 1.77191 27.3484 1.125 25.8578 1.125C22.4547 1.125 20.0641 4.30315 18.8828 6.32815C17.7015 4.30315 15.2828 1.15314 11.9078 1.15314C9.74221 1.15314 8.19531 2.47503 8.19531 4.27501C8.19531 7.48122 11.7109 9.5625 18.7702 9.5625C25.8296 9.5625 29.5702 6.89066 29.5702 4.30315C29.5703 3.79691 29.4578 3.29068 29.2047 2.84065ZM12.6391 6.30009C11.8516 5.76572 11.5704 5.17508 11.5704 4.78132C11.5704 4.30322 12.0204 3.93759 12.6672 3.93759C14.186 3.93759 15.3954 5.93446 16.0703 7.31262C14.2985 7.17194 13.2578 6.69378 12.6391 6.30009ZM25.1265 6.30009C24.5078 6.69385 23.4672 7.17194 21.6953 7.31255C22.3422 5.93446 23.5516 3.93752 25.0984 3.93752C25.7452 3.93752 26.1953 4.30315 26.1953 4.78124C26.1953 5.17508 25.9141 5.76565 25.1265 6.30009Z" fill="#ECECEC"/>
<path d="M0.882812 9L18.8828 17.8031L36.8828 9V14.8218L18.8265 23.6249L0.882812 14.8218V9Z" fill="#E04A3E"/>
<path d="M25.6327 15.2719V14.625L18.8827 10.9688L12.1328 14.625V15.2719L7.63281 13.3031V12.4032L18.6577 6.5813L18.8827 6.69377L19.1078 6.5813L30.1327 12.375V13.275L25.6327 15.2719Z" fill="#ECECEC"/>
<path d="M25.6328 14.625V32.5969L30.1328 30.3469V12.375L25.6328 14.625Z" fill="#D8D8D8"/>
<path d="M7.63281 30.3749L12.1328 32.6249V14.6532L7.63281 12.375C7.63281 12.3749 7.63281 30.3749 7.63281 30.3749Z" fill="#C9C9C9"/>
</g>
<defs>
<clipPath id="clip0_112_725">
<rect width="36" height="36" fill="white" transform="translate(0.882812)"/>
</clipPath>
</defs>
</svg>
