<svg width="22" height="22" viewBox="0 0 22 22" fill="none" xmlns="http://www.w3.org/2000/svg">
<g clip-path="url(#clip0_277_1203)">
<path d="M5.15625 11C5.15625 9.91001 5.45656 8.88895 5.97828 8.01466V4.30611H2.26974C0.797844 6.21771 0 8.54743 0 11C0 13.4526 0.797844 15.7823 2.26974 17.6939H5.97828V13.9853C5.45656 13.1111 5.15625 12.09 5.15625 11Z" fill="#FBBD00"/>
<path d="M11 16.8437L8.42188 19.4219L11 22C13.4526 22 15.7823 21.2022 17.6939 19.7303V16.0257H13.9893C13.1074 16.5493 12.082 16.8437 11 16.8437Z" fill="#0F9D58"/>
<path d="M5.97808 13.9853L2.26953 17.6939C2.56321 18.0755 2.88124 18.4377 3.22163 18.7782C5.29926 20.8558 8.06159 22 10.9998 22V16.8438C8.86751 16.8438 6.99867 15.6956 5.97808 13.9853Z" fill="#31AA52"/>
<path d="M22 11C22.0001 10.3317 21.9398 9.66471 21.8199 9.00724L21.7232 8.47877H11V13.635H16.2186C15.7193 14.6286 14.9456 15.4583 13.9892 16.0257L17.6938 19.7303C18.0754 19.4366 18.4376 19.1186 18.7782 18.7782C20.8558 16.7005 22 13.9382 22 11Z" fill="#3C79E6"/>
<path d="M15.1322 6.86782L15.5879 7.32355L19.2339 3.67757L18.7782 3.22184C16.7006 1.14421 13.9382 0 11 0L8.42188 2.57812L11 5.15625C12.5609 5.15625 14.0284 5.76409 15.1322 6.86782Z" fill="#CF2D48"/>
<path d="M10.9998 5.15625V0C8.06163 0 5.2993 1.14421 3.22163 3.2218C2.88122 3.56233 2.56319 3.92452 2.26953 4.30611L5.97808 8.01466C6.99871 6.30437 8.86756 5.15625 10.9998 5.15625Z" fill="#EB4132"/>
</g>
<defs>
<clipPath id="clip0_277_1203">
<rect width="22" height="22" fill="white"/>
</clipPath>
</defs>
</svg>
