<svg width="26" height="27" viewBox="0 0 26 27" fill="none" xmlns="http://www.w3.org/2000/svg">
<path d="M17.0625 8.625H8.9375C8.489 8.625 8.125 8.989 8.125 9.4375V25.6875C8.125 26.136 8.489 26.5 8.9375 26.5H17.0625C17.511 26.5 17.875 26.136 17.875 25.6875V9.4375C17.875 8.989 17.511 8.625 17.0625 8.625Z" fill="#FFC107"/>
<path d="M8.9375 16.75H0.8125C0.364 16.75 0 17.114 0 17.5625V25.6875C0 26.136 0.364 26.5 0.8125 26.5H8.9375C9.386 26.5 9.75 26.136 9.75 25.6875V17.5625C9.75 17.114 9.386 16.75 8.9375 16.75Z" fill="#FFC107"/>
<path d="M25.1875 0.5H17.0625C16.614 0.5 16.25 0.864 16.25 1.3125V25.6875C16.25 26.136 16.614 26.5 17.0625 26.5H25.1875C25.636 26.5 26 26.136 26 25.6875V1.3125C26 0.864 25.636 0.5 25.1875 0.5Z" fill="#FFA000"/>
</svg>
