<svg width="24" height="30" viewBox="0 0 24 30" fill="none" xmlns="http://www.w3.org/2000/svg">
<path d="M21.6786 5.485L8.48438 9.00062L12 30L21.0069 18.0691C22.4331 16.1801 23.2793 13.8286 23.2793 11.2793C23.2793 9.16053 22.6946 7.17859 21.6786 5.485Z" fill="#0F9D58"/>
<path d="M7.60645 24.1801L12 30V18.3432L7.60645 24.1801Z" fill="#31AA52"/>
<path d="M12 18.3432L15.3941 13.8341L12 11.2793L8.48438 14.8112L12 18.3432Z" fill="#F69411"/>
<path d="M12 1.7185e-06L8.48438 3.86537L12 7.73074L14.8909 0.374591C13.9475 0.125375 12.9758 -0.00053655 12 1.7185e-06Z" fill="#4175DF"/>
<path d="M2.98828 4.4959V11.2793H12.0001V0C8.31715 0 5.04685 1.76543 2.98828 4.4959Z" fill="#4086F4"/>
<path d="M2.98816 4.49593C1.56486 6.38382 0.720703 8.7329 0.720703 11.2793C0.720703 13.398 1.30553 15.3797 2.3216 17.0731L10.3636 10.0476L2.98816 4.49593Z" fill="#EB4132"/>
<path d="M14.8909 0.374603L12 4.21519L7.75195 13.8341H15.3941L21.6786 5.48509C20.1865 2.99814 17.7633 1.1341 14.8909 0.374603Z" fill="#4086F4"/>
<path d="M11.9997 4.21516L8.60547 8.72442L11.9997 11.2793V4.21516Z" fill="#609AF6"/>
<path d="M8.48438 11.2793L12 18.3432L15.3941 13.8341L8.48438 11.2793Z" fill="#F8A808"/>
<path d="M8.60547 8.72444L2.32129 17.0731C2.52729 17.4167 2.75143 17.7492 2.99277 18.069L7.60609 24.1801L11.9997 18.3432V11.2793L8.60547 8.72444Z" fill="#FBBD00"/>
<path d="M12 7.03125L9.87598 11.2793L12 15.5273C14.3462 15.5273 16.248 13.6254 16.248 11.2793C16.248 8.93314 14.3462 7.03125 12 7.03125Z" fill="white"/>
<path d="M7.75195 11.2793C7.75195 13.6254 9.65385 15.5273 12 15.5273V7.03125C9.65385 7.03125 7.75195 8.93314 7.75195 11.2793Z" fill="white"/>
</svg>
