<svg width="19" height="18" viewBox="0 0 19 18" fill="none" xmlns="http://www.w3.org/2000/svg">
<path d="M17.9849 2.46076C17.7201 2.1955 17.2904 2.19505 17.0256 2.45963L8.88722 10.5766L5.9509 7.38745C5.69718 7.11204 5.2682 7.09418 4.99233 7.34786C4.71667 7.60159 4.69902 8.03077 4.95274 8.30643L8.36733 12.0147C8.42919 12.082 8.504 12.136 8.58728 12.1736C8.67056 12.2112 8.76058 12.2315 8.85192 12.2334C8.85688 12.2336 8.86166 12.2336 8.86641 12.2336C9.04593 12.2336 9.21812 12.1624 9.34534 12.0358L17.9835 3.42021C18.249 3.15566 18.2495 2.72601 17.9849 2.46076Z" fill="#90C52D"/>
<path d="M17.8216 8.32159C17.4469 8.32159 17.1432 8.62527 17.1432 9C17.1432 13.2146 13.7146 16.6432 9.5 16.6432C5.28561 16.6432 1.85679 13.2146 1.85679 9C1.85679 4.78561 5.28561 1.35679 9.5 1.35679C9.8747 1.35679 10.1784 1.05311 10.1784 0.67841C10.1784 0.30368 9.8747 0 9.5 0C4.53734 0 0.5 4.03734 0.5 9C0.5 13.9624 4.53734 18 9.5 18C14.4624 18 18.5 13.9624 18.5 9C18.5 8.6253 18.1963 8.32159 17.8216 8.32159Z" fill="#90C52D"/>
</svg>
