<svg width="24" height="20" viewBox="0 0 24 20" fill="none" xmlns="http://www.w3.org/2000/svg">
<path d="M2.00016 0H22.0002C22.4422 0 22.8661 0.175595 23.1787 0.488156C23.4912 0.800716 23.6668 1.22464 23.6668 1.66667C23.6668 2.10869 23.4912 2.53262 23.1787 2.84518C22.8661 3.15774 22.4422 3.33333 22.0002 3.33333H2.00016C1.55814 3.33333 1.13421 3.15774 0.821651 2.84518C0.509091 2.53262 0.333496 2.10869 0.333496 1.66667C0.333496 1.22464 0.509091 0.800716 0.821651 0.488156C1.13421 0.175595 1.55814 0 2.00016 0ZM0.333496 18.3333C0.333496 18.7754 0.509091 19.1993 0.821651 19.5118C1.13421 19.8244 1.55814 20 2.00016 20H22.0002C22.4422 20 22.8661 19.8244 23.1787 19.5118C23.4912 19.1993 23.6668 18.7754 23.6668 18.3333C23.6668 17.8913 23.4912 17.4674 23.1787 17.1548C22.8661 16.8423 22.4422 16.6667 22.0002 16.6667H2.00016C1.55814 16.6667 1.13421 16.8423 0.821651 17.1548C0.509091 17.4674 0.333496 17.8913 0.333496 18.3333ZM0.333496 10C0.333496 10.442 0.509091 10.8659 0.821651 11.1785C1.13421 11.4911 1.55814 11.6667 2.00016 11.6667H22.0002C22.4422 11.6667 22.8661 11.4911 23.1787 11.1785C23.4912 10.8659 23.6668 10.442 23.6668 10C23.6668 9.55797 23.4912 9.13405 23.1787 8.82149C22.8661 8.50893 22.4422 8.33333 22.0002 8.33333H2.00016C1.55814 8.33333 1.13421 8.50893 0.821651 8.82149C0.509091 9.13405 0.333496 9.55797 0.333496 10Z" fill="#00BFFF"/>
</svg>
