<svg width="30" height="26" viewBox="0 0 30 26" fill="none" xmlns="http://www.w3.org/2000/svg">
<path fill-rule="evenodd" clip-rule="evenodd" d="M3.28125 0.4375L3.375 0.53125L27.1875 24.3438C27.4688 24.7188 27.4688 25.2812 27.0938 25.5625C26.7188 25.9375 26.1562 25.9375 25.7812 25.5625L22.2188 22C20.0625 23.125 17.625 23.875 15 23.875C6.75 23.875 0 16.375 0 12.625C0 10.5625 2.0625 7.375 5.25 4.9375L1.96875 1.75C1.59375 1.375 1.59375 0.8125 1.96875 0.4375C2.34375 0.0625 2.90625 0.0625 3.28125 0.4375ZM15 1.46875C23.25 1.46875 30 8.96875 30 12.7188C30 14.6875 28.2188 17.5938 25.4062 19.9375L20.25 14.7812C20.5312 14.125 20.625 13.4688 20.625 12.7188C20.625 9.625 18.0938 7.09375 15 7.09375C14.25 7.09375 13.5938 7.1875 12.9375 7.46875L8.4375 2.96875C10.5 2.03125 12.6562 1.46875 15 1.46875ZM10.125 9.90625C9.65625 10.75 9.375 11.6875 9.375 12.7188C9.375 15.8125 11.9062 18.3438 15 18.3438C16.0312 18.3438 16.9688 18.0625 17.8125 17.5938L16.4062 16.1875C15.9375 16.375 15.4688 16.4688 15 16.4688C12.9375 16.4688 11.25 14.7812 11.25 12.7188C11.25 12.25 11.3438 11.7812 11.5312 11.3125L10.125 9.90625Z" fill="#C6C6C6"/>
</svg>
