<svg width="30" height="30" viewBox="0 0 30 30" fill="none" xmlns="http://www.w3.org/2000/svg">
<g clip-path="url(#clip0_198_139)">
<path fill-rule="evenodd" clip-rule="evenodd" d="M15 0C23.2844 0 30.0001 6.71572 30.0001 15C30.0001 23.2844 23.2844 30.0001 15 30.0001C6.71572 30.0001 0 23.2844 0 15C0 6.71572 6.71572 0 15 0ZM11.3423 6.4225H18.6582C21.4055 6.4225 23.6522 8.64136 23.6522 11.352V18.6482C23.6522 21.3595 21.4055 23.5776 18.6583 23.5776L11.3423 23.5775C8.59492 23.5775 6.34798 21.3594 6.34798 18.6481V11.3519C6.34798 8.64136 8.59492 6.4225 11.3423 6.4225ZM14.9535 10.3684C17.6232 10.3684 19.7896 12.5349 19.7896 15.2045C19.7896 17.8746 17.6232 20.0407 14.9535 20.0407C12.283 20.0407 10.117 17.8746 10.117 15.2045C10.117 12.5349 12.2831 10.3684 14.9535 10.3684ZM14.9535 12.0019C16.7214 12.0019 18.1563 13.4364 18.1563 15.2045C18.1563 16.9728 16.7214 18.4075 14.9535 18.4075C13.185 18.4075 11.7504 16.9727 11.7504 15.2045C11.7504 13.4364 13.185 12.0019 14.9535 12.0019ZM19.6323 9.69805C20.066 9.69805 20.4176 10.0497 20.4176 10.4829C20.4176 10.9167 20.066 11.2683 19.6323 11.2683C19.1989 11.2683 18.8474 10.9167 18.8474 10.4829C18.8474 10.0496 19.199 9.69805 19.6323 9.69805ZM11.9401 7.8238H18.0609C20.3593 7.8238 22.2389 9.69418 22.2389 11.9798V18.1313C22.2389 20.4169 20.3593 22.287 18.0609 22.287L11.9401 22.2871C9.6418 22.2871 7.76179 20.4171 7.76179 18.1314V11.9797C7.76179 9.69418 9.6418 7.8238 11.9401 7.8238Z" fill="url(#paint0_linear_198_139)"/>
</g>
<defs>
<linearGradient id="paint0_linear_198_139" x1="22.5163" y1="27.7377" x2="7.48372" y2="2.26233" gradientUnits="userSpaceOnUse">
<stop stop-color="#F58529"/>
<stop offset="0.478" stop-color="#DD2A7B"/>
<stop offset="0.78" stop-color="#8134AF"/>
<stop offset="1" stop-color="#515BD4"/>
</linearGradient>
<clipPath id="clip0_198_139">
<rect width="30" height="30" fill="white"/>
</clipPath>
</defs>
</svg>
