<svg width="13" height="12" viewBox="0 0 13 12" fill="none" xmlns="http://www.w3.org/2000/svg">
<path d="M11.7498 5.25922H3.06034L7.03009 1.28947C7.10172 1.22028 7.15886 1.13752 7.19817 1.04602C7.23747 0.954516 7.25816 0.856102 7.25903 0.756517C7.25989 0.656933 7.24092 0.558173 7.20321 0.466001C7.1655 0.373828 7.10981 0.290089 7.03939 0.21967C6.96897 0.14925 6.88523 0.0935604 6.79306 0.0558497C6.70088 0.0181391 6.60212 -0.000837044 6.50254 2.83178e-05C6.40295 0.00089368 6.30454 0.0215834 6.21304 0.0608901C6.12153 0.100197 6.03877 0.157334 5.96959 0.228966L0.71959 5.47897C0.578987 5.61961 0.5 5.81034 0.5 6.00922C0.5 6.20809 0.578987 6.39882 0.71959 6.53947L5.96959 11.7895C6.11104 11.9261 6.30049 12.0017 6.49714 12C6.69379 11.9983 6.8819 11.9194 7.02095 11.7803C7.16001 11.6413 7.23889 11.4532 7.24059 11.2565C7.2423 11.0599 7.16671 10.8704 7.03009 10.729L3.06034 6.75922H11.7498C11.9488 6.75922 12.1395 6.6802 12.2802 6.53955C12.4208 6.39889 12.4998 6.20813 12.4998 6.00922C12.4998 5.8103 12.4208 5.61954 12.2802 5.47889C12.1395 5.33823 11.9488 5.25922 11.7498 5.25922Z" fill="#383F44"/>
</svg>
