<svg width="117" height="40" viewBox="0 0 117 40" fill="none" xmlns="http://www.w3.org/2000/svg">
<path d="M1.32812 7.88423C0.997659 7.88175 0.679692 7.75922 0.434872 7.54001C0.190052 7.32081 0.0355133 7.02028 0.000737021 6.69574V4.17022C-0.00865513 3.72033 0.0717988 3.27303 0.237502 2.85387C0.403207 2.43468 0.650914 2.05187 0.966474 1.72726C1.28203 1.40265 1.65926 1.14261 2.07661 0.962008C2.49397 0.781404 2.94326 0.68377 3.39882 0.674683H9.41627C9.74191 0.711877 10.0423 0.865979 10.2604 1.10767C10.4785 1.34937 10.599 1.66179 10.599 1.98551C10.599 2.30923 10.4785 2.62165 10.2604 2.86335C10.0423 3.10504 9.74191 3.25914 9.41627 3.29633H3.54041C2.88558 3.29633 2.6555 3.52354 2.6555 4.17022V6.64331C2.64169 6.9802 2.4952 7.29845 2.24726 7.53025C1.99931 7.76205 1.6695 7.88905 1.32812 7.88423Z" fill="#38485B"/>
<path d="M10.62 38.6885C10.6175 39.0148 10.4934 39.3288 10.2714 39.5706C10.0495 39.8124 9.74515 39.965 9.41652 39.9993H3.54065C3.08509 40.0086 2.63213 39.9292 2.20767 39.7655C1.7832 39.6019 1.39555 39.3572 1.06684 39.0456C0.738131 38.734 0.474815 38.3614 0.29193 37.9493C0.109046 37.5371 0.010179 37.0935 0.000976562 36.6436V33.9782C0.0386401 33.6567 0.194688 33.36 0.439435 33.1447C0.684183 32.9293 1.00055 32.8103 1.32835 32.8103C1.65616 32.8103 1.97253 32.9293 2.21727 33.1447C2.46202 33.36 2.61807 33.6567 2.65573 33.9782V36.5038C2.65573 37.1504 2.88581 37.3777 3.54065 37.3777H9.36342C9.70456 37.3913 10.0268 37.5359 10.2616 37.7808C10.4963 38.0256 10.6249 38.3514 10.62 38.6885Z" fill="#38485B"/>
<path d="M37.6659 38.3571C37.6685 38.684 37.7931 38.9986 38.0161 39.2408C38.239 39.4831 38.5447 39.636 38.8748 39.6704H44.7767C45.2342 39.6797 45.6892 39.6001 46.1156 39.4362C46.5419 39.2722 46.9313 39.0271 47.2614 38.7148C47.5916 38.4027 47.8561 38.0294 48.0398 37.6165C48.2235 37.2035 48.3228 36.7591 48.332 36.3083V33.6317C48.2942 33.3095 48.1375 33.0123 47.8916 32.7965C47.6458 32.5807 47.328 32.4615 46.9988 32.4615C46.6695 32.4615 46.3517 32.5807 46.1059 32.7965C45.8601 33.0123 45.7033 33.3095 45.6655 33.6317V36.1682C45.6655 36.8161 45.4344 37.0437 44.7767 37.0437H38.9281C38.5854 37.0574 38.2617 37.2023 38.026 37.4477C37.7902 37.693 37.661 38.0193 37.6659 38.3571Z" fill="#03A9F4"/>
<path d="M38.0524 1.98526C38.0548 1.65892 38.1789 1.34492 38.4009 1.10316C38.6229 0.861388 38.9272 0.708777 39.2559 0.674434H45.1318C45.5873 0.665159 46.0403 0.74461 46.4647 0.908247C46.8891 1.07189 47.2768 1.3165 47.6055 1.62813C47.9342 1.93975 48.1975 2.31228 48.3804 2.72442C48.5633 3.13657 48.6622 3.58026 48.6714 4.03015V6.69549C48.6337 7.01707 48.4777 7.31375 48.233 7.5291C47.9882 7.74445 47.6719 7.86345 47.344 7.86345C47.0162 7.86345 46.6998 7.74445 46.4551 7.5291C46.2104 7.31375 46.0543 7.01707 46.0166 6.69549V4.16997C46.0166 3.52329 45.7865 3.29608 45.1318 3.29608H39.309C38.9678 3.28245 38.6456 3.1378 38.4108 2.89294C38.176 2.64809 38.0475 2.32239 38.0524 1.98526Z" fill="#38485B"/>
<path d="M23.2162 31.0644L21.039 33.2049L17.0525 29.3157H8.46617L5.00098 25.9089V11.6183L8.46617 8.21143H19.0764L22.5416 11.6183V25.9089L20.303 28.1098L23.2162 31.0644ZM17.2365 26.3008L18.9844 24.6125V12.9147L17.2365 11.2263H10.3061L8.55816 12.9147V24.6125L10.3061 26.3008H17.2365Z" fill="#03A9F4"/>
<path d="M42.8538 22.5021V29.3157H39.2966V23.3462L37.0887 20.9645H30.097V29.3157H26.5398V8.21143H39.6033L42.7311 11.3168V17.7988L40.4926 19.9997L42.8538 22.5021ZM30.097 18.0701H38.0087L39.2353 16.8642V12.372L38.0087 11.166H30.097V18.0701Z" fill="#03A9F4"/>
<path d="M48.6646 24.6277C48.6646 23.0411 48.9856 21.6528 49.6278 20.4628C50.27 19.254 51.1483 18.319 52.2627 17.6579C53.396 16.9969 54.6521 16.6663 56.0309 16.6663C57.3909 16.6663 58.5714 16.9591 59.5724 17.5446C60.5735 18.1301 61.3196 18.8668 61.8107 19.7545V16.9213H64.4172V32.4473H61.8107V29.5575C61.3007 30.4641 60.5357 31.2196 59.5158 31.824C58.5147 32.4096 57.3436 32.7023 56.0026 32.7023C54.6237 32.7023 53.3771 32.3623 52.2627 31.6824C51.1483 31.0024 50.27 30.0485 49.6278 28.8208C48.9856 27.5931 48.6646 26.1954 48.6646 24.6277ZM61.8107 24.656C61.8107 23.4849 61.5746 22.465 61.1024 21.5961C60.6302 20.7273 59.988 20.0662 59.1758 19.6129C58.3825 19.1407 57.5042 18.9046 56.5409 18.9046C55.5776 18.9046 54.6993 19.1312 53.906 19.5845C53.1127 20.0378 52.4799 20.6989 52.0077 21.5678C51.5355 22.4366 51.2994 23.4566 51.2994 24.6277C51.2994 25.8176 51.5355 26.8565 52.0077 27.7442C52.4799 28.613 53.1127 29.2836 53.906 29.7558C54.6993 30.2091 55.5776 30.4358 56.5409 30.4358C57.5042 30.4358 58.3825 30.2091 59.1758 29.7558C59.988 29.2836 60.6302 28.613 61.1024 27.7442C61.5746 26.8565 61.8107 25.8271 61.8107 24.656Z" fill="#38485B"/>
<path d="M71.3524 19.7829C71.8624 18.8951 72.6179 18.1585 73.619 17.5729C74.6389 16.9685 75.8195 16.6663 77.1605 16.6663C78.5393 16.6663 79.786 16.9969 80.9003 17.6579C82.0336 18.319 82.9214 19.254 83.5636 20.4628C84.2058 21.6528 84.5269 23.0411 84.5269 24.6277C84.5269 26.1954 84.2058 27.5931 83.5636 28.8208C82.9214 30.0485 82.0336 31.0024 80.9003 31.6824C79.786 32.3623 78.5393 32.7023 77.1605 32.7023C75.8383 32.7023 74.6673 32.4096 73.6473 31.824C72.6462 31.2196 71.8813 30.4735 71.3524 29.5858V39.8137H68.7742V16.9213H71.3524V19.7829ZM81.892 24.6277C81.892 23.4566 81.6559 22.4366 81.1837 21.5678C80.7115 20.6989 80.0693 20.0378 79.2571 19.5845C78.4638 19.1312 77.5855 18.9046 76.6222 18.9046C75.6778 18.9046 74.7995 19.1407 73.9873 19.6129C73.194 20.0662 72.5518 20.7367 72.0607 21.6244C71.5885 22.4933 71.3524 23.5038 71.3524 24.656C71.3524 25.8271 71.5885 26.8565 72.0607 27.7442C72.5518 28.613 73.194 29.2836 73.9873 29.7558C74.7995 30.2091 75.6778 30.4358 76.6222 30.4358C77.5855 30.4358 78.4638 30.2091 79.2571 29.7558C80.0693 29.2836 80.7115 28.613 81.1837 27.7442C81.6559 26.8565 81.892 25.8176 81.892 24.6277Z" fill="#38485B"/>
<path d="M102.087 24.0893C102.087 24.5804 102.058 25.0999 102.002 25.6476H89.5921C89.6866 27.1776 90.206 28.3769 91.1504 29.2458C92.1137 30.0958 93.2753 30.5207 94.6353 30.5207C95.7496 30.5207 96.6752 30.2658 97.4118 29.7558C98.1673 29.2269 98.6962 28.5281 98.9984 27.6592H101.775C101.359 29.1514 100.528 30.3696 99.2817 31.314C98.0351 32.2396 96.4863 32.7023 94.6353 32.7023C93.162 32.7023 91.8398 32.3718 90.6687 31.7107C89.5166 31.0496 88.6099 30.1147 87.9489 28.9058C87.2878 27.6781 86.9572 26.2615 86.9572 24.656C86.9572 23.0505 87.2783 21.6433 87.9205 20.4345C88.5627 19.2257 89.4599 18.3001 90.6121 17.6579C91.7831 16.9969 93.1242 16.6663 94.6353 16.6663C96.1085 16.6663 97.4118 16.9874 98.5451 17.6296C99.6784 18.2718 100.547 19.1596 101.152 20.2928C101.775 21.4072 102.087 22.6727 102.087 24.0893ZM99.4234 23.551C99.4234 22.5689 99.2062 21.7283 98.7717 21.0295C98.3373 20.3117 97.7423 19.7734 96.9868 19.4145C96.2502 19.0368 95.4286 18.8479 94.5219 18.8479C93.2186 18.8479 92.1042 19.2634 91.1787 20.0945C90.2721 20.9256 89.7527 22.0778 89.6205 23.551H99.4234Z" fill="#38485B"/>
<path d="M113.593 32.4473L109.91 26.6676L106.368 32.4473H103.677L108.691 24.741L103.677 16.9213H106.595L110.278 22.6727L113.791 16.9213H116.483L111.496 24.5993L116.511 32.4473H113.593Z" fill="#38485B"/>
</svg>
