<svg width="20" height="20" viewBox="0 0 20 20" fill="none" xmlns="http://www.w3.org/2000/svg">
<path d="M19.4111 11.5896L18.5526 10.9047C17.9646 10.4355 17.9657 9.56352 18.5527 9.09527L19.4111 8.41035C19.7065 8.17585 19.9062 7.84704 19.9742 7.48284C20.0423 7.11863 19.9744 6.74284 19.7826 6.42278L18.0876 3.57723C17.8975 3.25622 17.5957 3.01129 17.2362 2.88633C16.8768 2.76137 16.4832 2.76455 16.1259 2.89528L15.0847 3.27336C14.3715 3.53227 13.5929 3.09559 13.4679 2.36864L13.2851 1.30559C13.2234 0.940339 13.0294 0.608348 12.738 0.369109C12.4466 0.12987 12.0769 -0.000980848 11.695 5.62464e-06H8.30503C7.92315 -0.000988639 7.55338 0.129863 7.26199 0.369111C6.97061 0.608359 6.77665 0.940365 6.71488 1.30563L6.53207 2.36864C6.40685 3.09688 5.62717 3.53184 4.91532 3.2734L3.87412 2.89528C3.51686 2.76455 3.12325 2.76137 2.7638 2.88633C2.40435 3.01129 2.10255 3.25622 1.91246 3.57723L0.217482 6.42274C0.0256596 6.74279 -0.0423035 7.11859 0.0257719 7.4828C0.0938473 7.84701 0.293512 8.17582 0.588986 8.41031L1.44738 9.09523C2.03546 9.56445 2.03429 10.4364 1.44738 10.9047L0.588945 11.5896C0.293478 11.8241 0.093819 12.1529 0.025744 12.5171C-0.042331 12.8813 0.0256275 13.2571 0.217442 13.5772L1.91246 16.4227C2.30814 17.0869 3.13304 17.3737 3.87412 17.1047L4.91528 16.7266C5.62858 16.4676 6.40705 16.9046 6.53203 17.6313L6.71484 18.6943C6.7766 19.0596 6.97055 19.3916 7.26194 19.6308C7.55332 19.8701 7.9231 20.001 8.30499 20H11.695C12.0769 20.001 12.4466 19.8701 12.738 19.6309C13.0294 19.3916 13.2233 19.0596 13.2851 18.6944L13.4679 17.6314C13.593 16.9034 14.3727 16.4681 15.0847 16.7267L16.1259 17.1047C16.4832 17.2355 16.8768 17.2387 17.2362 17.1137C17.5957 16.9887 17.8975 16.7438 18.0876 16.4228L19.7826 13.5772C19.9744 13.2571 20.0423 12.8813 19.9742 12.5171C19.9062 12.1529 19.7065 11.8241 19.4111 11.5896ZM16.6915 15.6415L15.6503 15.2634C13.9858 14.6591 12.1694 15.6787 11.8778 17.3745L11.695 18.4375H8.30503L8.12222 17.3745C7.83007 15.6754 6.01096 14.6603 4.34976 15.2634L3.30856 15.6415L1.61358 12.796L2.47197 12.1111C3.84421 11.0161 3.84135 8.9816 2.47197 7.88895L1.61358 7.20402L3.3086 4.35848L4.34976 4.73657C6.01423 5.34086 7.83063 4.32133 8.12222 2.62551L8.30499 1.5625H11.695L11.8778 2.62551C12.1699 4.32481 13.9891 5.33961 15.6502 4.73657L16.6914 4.35848L18.3868 7.20363L18.3864 7.20399L17.528 7.88891C16.1558 8.98375 16.1585 11.0183 17.528 12.111L18.3864 12.7959L16.6915 15.6415ZM10 6.14582C7.80738 6.14582 6.02354 7.87481 6.02354 10C6.02354 12.1252 7.80738 13.8542 10 13.8542C12.1926 13.8542 13.9765 12.1252 13.9765 10C13.9765 7.87481 12.1926 6.14582 10 6.14582ZM10 12.2917C8.69628 12.2917 7.63561 11.2636 7.63561 10C7.63561 8.73637 8.69628 7.70832 10 7.70832C11.3037 7.70832 12.3644 8.73637 12.3644 10C12.3644 11.2636 11.3037 12.2917 10 12.2917Z" fill="#47BDEF"/>
</svg>
