<svg width="22" height="22" viewBox="0 0 22 22" fill="none" xmlns="http://www.w3.org/2000/svg">
<path d="M11 0C4.92487 0 0 4.92487 0 11C0 17.0751 4.92487 22 11 22C17.0751 22 22 17.0751 22 11C21.9936 4.92759 17.0725 0.00649136 11 0ZM15.6325 11.3505C15.5564 11.5033 15.4326 11.6271 15.2798 11.7032V11.7071L8.99408 14.85C8.60589 15.044 8.134 14.8866 7.93999 14.4984C7.88483 14.388 7.85644 14.2662 7.85712 14.1429V7.85717C7.85694 7.42321 8.20853 7.0713 8.64249 7.07107C8.76453 7.07101 8.88491 7.09939 8.99408 7.15394L15.2798 10.2968C15.6682 10.4904 15.8261 10.9621 15.6325 11.3505Z" fill="white" fill-opacity="0.3"/>
</svg>
