<svg width="24" height="24" viewBox="0 0 24 24" fill="none" xmlns="http://www.w3.org/2000/svg">
<path d="M3 10H10V3H3V10ZM5 5H8V8H5V5Z" fill="white" fill-opacity="0.6"/>
<path d="M3 21H10V14H3V21ZM5 16H8V19H5V16Z" fill="white" fill-opacity="0.6"/>
<path d="M14 3V10H21V3H14ZM19 8H16V5H19V8Z" fill="white" fill-opacity="0.6"/>
<path d="M19 16H16V19H19V16Z" fill="white" fill-opacity="0.6"/>
<path d="M16 14H14V16H16V14Z" fill="white" fill-opacity="0.6"/>
<path d="M21 14H19V16H21V14Z" fill="white" fill-opacity="0.6"/>
<path d="M21 19H19V21H21V19Z" fill="white" fill-opacity="0.6"/>
<path d="M16 19H14V21H16V19Z" fill="white" fill-opacity="0.6"/>
</svg>
