<svg width="22" height="22" viewBox="0 0 22 22" fill="none" xmlns="http://www.w3.org/2000/svg">
<path d="M13.2198 19.9903C13.2198 19.2299 12.6033 18.6135 11.843 18.6135H10.157C9.79189 18.6135 9.44169 18.7586 9.18349 19.0168C8.92529 19.275 8.78023 19.6252 8.78023 19.9903C8.78023 20.7507 9.39666 21.3671 10.157 21.3671H11.843C12.6033 21.3671 13.2198 20.7507 13.2198 19.9903ZM2.89442 16.4401C3.12439 16.4577 3.40261 16.4678 3.68208 16.4514C3.85725 17.3396 4.33532 18.1395 5.03466 18.7144C5.73399 19.2893 6.61121 19.6036 7.51652 19.6036H8.04186C7.99519 19.8593 7.99507 20.1213 8.04152 20.377H7.51652C6.40395 20.377 5.32775 19.9808 4.48077 19.2594C3.6338 18.538 3.07142 17.5385 2.89442 16.4401ZM2.501 15.6171C1.80176 15.4992 1.16689 15.1374 0.709053 14.5959C0.251213 14.0544 3.4892e-06 13.3683 0 12.6592L0 10.8311C0 10.0356 0.316037 9.27258 0.878587 8.71002C1.44114 8.14746 2.20412 7.83141 2.99969 7.8314H3.19937C3.51854 3.80282 6.88909 0.632889 11 0.632889C15.1109 0.632889 18.4815 3.80282 18.8006 7.8314H19.0003C19.7959 7.83141 20.5589 8.14746 21.1214 8.71002C21.684 9.27258 22 10.0356 22 10.8311V12.6592C22 13.4547 21.684 14.2177 21.1214 14.7803C20.5589 15.3428 19.7959 15.6589 19.0003 15.6589H18.1151C17.748 15.6589 17.4504 15.3612 17.4504 14.9942V8.45827C17.4504 4.89582 14.5625 2.00789 11 2.00789C7.43755 2.00789 4.54962 4.89582 4.54962 8.45827V14.9942C4.54962 15.2533 4.40125 15.4779 4.18477 15.5876C3.58888 15.7943 2.66475 15.6448 2.501 15.6171Z" fill="white" fill-opacity="0.3"/>
</svg>
