<svg width="20" height="20" viewBox="0 0 20 20" fill="none" xmlns="http://www.w3.org/2000/svg">
<path d="M17.5 0.25H2.5C1.90326 0.25 1.33097 0.487053 0.90901 0.90901C0.487053 1.33097 0.25 1.90326 0.25 2.5V17.5C0.25 18.0967 0.487053 18.669 0.90901 19.091C1.33097 19.5129 1.90326 19.75 2.5 19.75H17.5C18.0967 19.75 18.669 19.5129 19.091 19.091C19.5129 18.669 19.75 18.0967 19.75 17.5V2.5C19.75 1.90326 19.5129 1.33097 19.091 0.90901C18.669 0.487053 18.0967 0.25 17.5 0.25ZM4 8.5H5.5C5.69891 8.5 5.88968 8.57902 6.03033 8.71967C6.17098 8.86032 6.25 9.05109 6.25 9.25V10.75C6.25 10.9489 6.17098 11.1397 6.03033 11.2803C5.88968 11.421 5.69891 11.5 5.5 11.5H4C3.80109 11.5 3.61032 11.421 3.46967 11.2803C3.32902 11.1397 3.25 10.9489 3.25 10.75V9.25C3.25 9.05109 3.32902 8.86032 3.46967 8.71967C3.61032 8.57902 3.80109 8.5 4 8.5ZM3.25 6.25V4.75C3.25 4.55109 3.32902 4.36032 3.46967 4.21967C3.61032 4.07902 3.80109 4 4 4H5.5C5.69891 4 5.88968 4.07902 6.03033 4.21967C6.17098 4.36032 6.25 4.55109 6.25 4.75V6.25C6.25 6.44891 6.17098 6.63968 6.03033 6.78033C5.88968 6.92098 5.69891 7 5.5 7H4C3.80109 7 3.61032 6.92098 3.46967 6.78033C3.32902 6.63968 3.25 6.44891 3.25 6.25ZM4 13H5.5C5.69891 13 5.88968 13.079 6.03033 13.2197C6.17098 13.3603 6.25 13.5511 6.25 13.75V15.25C6.25 15.4489 6.17098 15.6397 6.03033 15.7803C5.88968 15.921 5.69891 16 5.5 16H4C3.80109 16 3.61032 15.921 3.46967 15.7803C3.32902 15.6397 3.25 15.4489 3.25 15.25V13.75C3.25 13.5511 3.32902 13.3603 3.46967 13.2197C3.61032 13.079 3.80109 13 4 13ZM8.5 13.75H16C16.1989 13.75 16.3897 13.829 16.5303 13.9697C16.671 14.1103 16.75 14.3011 16.75 14.5C16.75 14.6989 16.671 14.8897 16.5303 15.0303C16.3897 15.171 16.1989 15.25 16 15.25H8.5C8.30109 15.25 8.11032 15.171 7.96967 15.0303C7.82902 14.8897 7.75 14.6989 7.75 14.5C7.75 14.3011 7.82902 14.1103 7.96967 13.9697C8.11032 13.829 8.30109 13.75 8.5 13.75ZM7.75 10C7.75 9.80109 7.82902 9.61032 7.96967 9.46967C8.11032 9.32902 8.30109 9.25 8.5 9.25H16C16.1989 9.25 16.3897 9.32902 16.5303 9.46967C16.671 9.61032 16.75 9.80109 16.75 10C16.75 10.1989 16.671 10.3897 16.5303 10.5303C16.3897 10.671 16.1989 10.75 16 10.75H8.5C8.30109 10.75 8.11032 10.671 7.96967 10.5303C7.82902 10.3897 7.75 10.1989 7.75 10ZM16 6.25H8.5C8.30109 6.25 8.11032 6.17098 7.96967 6.03033C7.82902 5.88968 7.75 5.69891 7.75 5.5C7.75 5.30109 7.82902 5.11032 7.96967 4.96967C8.11032 4.82902 8.30109 4.75 8.5 4.75H16C16.1989 4.75 16.3897 4.82902 16.5303 4.96967C16.671 5.11032 16.75 5.30109 16.75 5.5C16.75 5.69891 16.671 5.88968 16.5303 6.03033C16.3897 6.17098 16.1989 6.25 16 6.25Z" fill="white" fill-opacity="0.3"/>
</svg>
