<svg width="80" height="80" viewBox="0 0 80 80" fill="none" xmlns="http://www.w3.org/2000/svg">
<rect x="1" y="1" width="78" height="78" rx="4" fill="white" stroke="#EAEAEC" stroke-width="2"/>
<g clip-path="url(#clip0_130_185)">
<path d="M29.7179 50.9002C26.7162 50.9002 24.0462 48.9782 23.0765 46.1169L23.011 45.9013C22.7823 45.1436 22.6865 44.5063 22.6865 43.8688V31.0845L18.1377 46.2687C17.5526 48.502 18.8858 50.8175 21.1226 51.4344L50.1167 59.1992C50.4694 59.291 50.8323 59.3376 51.1967 59.3379C53.0641 59.3379 54.7704 58.0985 55.2487 56.2719L56.938 50.9002H29.7179ZM34.8744 31.2122C36.9427 31.2122 38.6242 29.5302 38.6242 27.462C38.6242 25.3938 36.9427 23.7118 34.8744 23.7118C32.8061 23.7118 31.1242 25.3939 31.1242 27.462C31.1242 29.5301 32.8062 31.2122 34.8744 31.2122Z" fill="#82848F" fill-opacity="0.5"/>
<path d="M58.3122 18.0866H30.1865C27.603 18.0866 25.499 20.1906 25.499 22.7745V43.3998C25.499 45.9837 27.603 48.0876 30.1865 48.0876H58.3122C60.8962 48.0876 63.0001 45.9837 63.0001 43.3998V22.7745C63.0001 20.1906 60.8962 18.0866 58.3122 18.0866ZM30.1865 21.8368H58.3122C58.83 21.8368 59.2499 22.2568 59.2499 22.7745V36.0854L53.3268 29.1739C52.6984 28.4371 51.789 28.0432 50.8122 28.021C49.8409 28.0264 48.9297 28.4576 48.3072 29.204L41.3431 37.5628L39.0743 35.2996C37.792 34.0172 35.705 34.0172 34.4243 35.2996L29.2492 40.4729V22.7744C29.2492 22.2567 29.6692 21.8368 30.1865 21.8368Z" fill="#82848F" fill-opacity="0.5"/>
</g>
<defs>
<clipPath id="clip0_130_185">
<rect width="45" height="45" fill="white" transform="translate(18 18)"/>
</clipPath>
</defs>
</svg>
