<svg width="30" height="30" viewBox="0 0 30 30" fill="none" xmlns="http://www.w3.org/2000/svg">
<g clip-path="url(#clip0_198_60)">
<path d="M15 30C23.2843 30 30 23.2843 30 15C30 6.71573 23.2843 0 15 0C6.71573 0 0 6.71573 0 15C0 23.2843 6.71573 30 15 30Z" fill="#E14F5D"/>
<path d="M16.766 21.1787C14.0543 20.9165 11.8372 18.9169 11.2501 16.2039C11.1349 15.6715 11.1261 14.4444 11.2335 13.8689C11.6473 11.6508 13.2638 9.79366 15.4008 9.08123C16.1104 8.84481 16.4629 8.79309 17.3674 8.79309C18.0777 8.79309 18.2424 8.80738 18.5893 8.88023C21.096 9.42209 22.9231 11.2354 23.4829 13.7367C23.5625 14.0924 23.5724 14.2318 23.5715 14.9958C23.5707 15.7398 23.5601 15.9051 23.4868 16.2277C23.2949 17.0807 22.9269 17.9221 22.4555 18.5852C22.1258 19.0492 21.4598 19.7154 20.9949 20.0462C19.7823 20.9094 18.2421 21.3214 16.766 21.1787ZM17.6805 16.5184C18.1631 16.4169 18.5666 16.1032 18.7846 15.6605C18.8862 15.4542 18.9119 15.3507 18.9253 15.0932C18.9612 14.4111 18.6348 13.8509 18.0339 13.5629C17.7356 13.4199 17.2185 13.3852 16.9035 13.4872C16.4629 13.6301 16.1437 13.9129 15.9407 14.3417C15.831 14.5732 15.821 14.6267 15.822 14.9764C15.8232 15.4621 15.9123 15.7062 16.2029 16.0201C16.605 16.4544 17.1353 16.6331 17.6805 16.5184ZM7.53464 16.4698C7.0919 16.3298 6.7442 16.0281 6.54947 15.6161C6.43904 15.3824 6.4279 15.3254 6.42875 14.9959C6.42998 14.5197 6.52218 14.2791 6.8293 13.9508C7.20611 13.5479 7.7114 13.3681 8.20717 13.4602C9.5617 13.7122 9.9646 15.3935 8.8702 16.2271C8.52615 16.4892 7.93471 16.5967 7.53464 16.4698Z" fill="white"/>
</g>
<defs>
<clipPath id="clip0_198_60">
<rect width="30" height="30" fill="white"/>
</clipPath>
</defs>
</svg>
