<svg width="30" height="31" viewBox="0 0 30 31" fill="none" xmlns="http://www.w3.org/2000/svg">
<rect y="0.5" width="30" height="30" rx="15" fill="#ECECEC"/>
<path d="M21.0399 13.4709L17.3023 12.9276L15.6302 9.54031C15.5722 9.42267 15.4823 9.32363 15.3709 9.25438C15.2595 9.18513 15.1309 9.14843 14.9997 9.14844C14.8685 9.14844 14.74 9.18515 14.6286 9.25441C14.5171 9.32367 14.4273 9.42272 14.3693 9.54036L12.6974 12.9276L8.95941 13.4709C8.82958 13.4897 8.70762 13.5446 8.60732 13.6291C8.50702 13.7137 8.43238 13.8246 8.39183 13.9494C8.35129 14.0742 8.34647 14.2078 8.37791 14.3352C8.40935 14.4626 8.4758 14.5786 8.56974 14.6702L11.2747 17.3067L10.6363 21.0296C10.6141 21.1589 10.6286 21.2918 10.678 21.4133C10.7275 21.5348 10.8099 21.6401 10.9161 21.7172C11.0222 21.7943 11.1478 21.8402 11.2786 21.8497C11.4094 21.8592 11.5403 21.8319 11.6565 21.7708L14.9997 20.0132L18.3433 21.7708C18.4442 21.8239 18.5564 21.8516 18.6704 21.8516H18.6733C19.0608 21.8506 19.3746 21.5362 19.3746 21.1485C19.3746 21.0945 19.3685 21.0419 19.357 20.9914L18.7247 17.3067L21.4296 14.6702C21.5236 14.5786 21.59 14.4626 21.6215 14.3352C21.6529 14.2079 21.6481 14.0742 21.6076 13.9495C21.567 13.8247 21.4924 13.7137 21.3921 13.6291C21.2918 13.5445 21.1698 13.4897 21.0399 13.4709ZM17.4784 16.5577C17.3967 16.6373 17.3357 16.7355 17.3004 16.844C17.2652 16.9524 17.2569 17.0678 17.2762 17.1801L17.7366 19.8631L15.3269 18.5964C15.226 18.5434 15.1137 18.5157 14.9997 18.5157C14.8857 18.5157 14.7734 18.5434 14.6725 18.5964L12.2631 19.8631L12.7232 17.1801C12.7425 17.0677 12.7342 16.9524 12.6989 16.844C12.6637 16.7356 12.6026 16.6373 12.521 16.5578L10.5716 14.6576L13.2654 14.2661C13.3782 14.2497 13.4854 14.2061 13.5776 14.1391C13.6698 14.0721 13.7444 13.9837 13.7948 13.8814L14.9998 11.4402L16.2049 13.8815C16.2553 13.9837 16.3299 14.0721 16.4221 14.1391C16.5143 14.2061 16.6214 14.2497 16.7342 14.2661L19.4279 14.6576L17.4784 16.5577Z" fill="#616568"/>
</svg>
