<svg width="16" height="13" viewBox="0 0 16 13" fill="none" xmlns="http://www.w3.org/2000/svg">
<path d="M5.30204 12.2393L0.230042 7.16728C0.157432 7.09486 0.0998231 7.00882 0.0605163 6.9141C0.0212095 6.81938 0.000976563 6.71783 0.000976562 6.61528C0.000976563 6.51273 0.0212095 6.41118 0.0605163 6.31646C0.0998231 6.22174 0.157432 6.1357 0.230042 6.06328L1.33404 4.96073C1.6395 4.65528 2.13259 4.65528 2.43659 4.96073L5.85477 8.37746L13.1697 1.05964C13.4751 0.754188 13.9697 0.754188 14.2737 1.05964L15.3762 2.16219C15.6817 2.46764 15.6817 2.96219 15.3762 3.26619L6.40459 12.2393C6.10059 12.5447 5.60604 12.5447 5.30204 12.2393Z" fill="#47BDEF"/>
</svg>
