<svg width="19" height="22" viewBox="0 0 19 22" fill="none" xmlns="http://www.w3.org/2000/svg">
<path d="M15.8544 11.1532C15.7759 11.0729 15.6822 11.0091 15.5787 10.9655C15.4752 10.9218 15.3641 10.8992 15.2519 10.8989C15.1396 10.8986 15.0283 10.9206 14.9247 10.9638C14.821 11.0069 14.7269 11.0702 14.648 11.1501C14.569 11.2299 14.5068 11.3247 14.4648 11.4289C14.4229 11.533 14.4021 11.6445 14.4036 11.7568C14.4052 11.869 14.4291 11.9799 14.4739 12.0828C14.5187 12.1858 14.5836 12.2788 14.6647 12.3564C15.3826 13.0628 15.9522 13.9055 16.34 14.835C16.7278 15.7645 16.9261 16.7621 16.9231 17.7693C16.9231 18.8041 13.9565 20.3077 9.30773 20.3077C4.65896 20.3077 1.69235 18.8033 1.69235 17.7676C1.68946 16.7673 1.88504 15.7763 2.26776 14.8522C2.65048 13.928 3.21273 13.0889 3.92196 12.3835C4.00278 12.3054 4.06724 12.2121 4.11159 12.1088C4.15593 12.0056 4.17927 11.8946 4.18025 11.7822C4.18123 11.6699 4.15982 11.5584 4.11727 11.4544C4.07473 11.3505 4.0119 11.256 3.93245 11.1765C3.853 11.0971 3.75853 11.0343 3.65454 10.9917C3.55055 10.9492 3.43913 10.9278 3.32678 10.9287C3.21442 10.9297 3.10339 10.9531 3.00016 10.9974C2.89692 11.0417 2.80356 11.1062 2.7255 11.187C1.8585 12.0494 1.17118 13.0752 0.703351 14.2051C0.235521 15.3349 -0.00353026 16.5464 3.93957e-05 17.7693C3.93957e-05 20.5176 4.79519 22 9.30773 22C13.8203 22 18.6154 20.5176 18.6154 17.7693C18.6192 16.5381 18.3769 15.3187 17.9027 14.1825C17.4286 13.0464 16.7322 12.0164 15.8544 11.1532Z" fill="#38485B"/>
<path d="M9.30784 11.8462C10.4793 11.8462 11.6245 11.4988 12.5985 10.8479C13.5726 10.1971 14.3317 9.27204 14.78 8.18974C15.2284 7.10744 15.3456 5.91651 15.1171 4.76754C14.8886 3.61858 14.3244 2.56319 13.4961 1.73483C12.6677 0.906474 11.6123 0.342356 10.4634 0.113813C9.31441 -0.11473 8.12348 0.00256637 7.04118 0.45087C5.95888 0.899173 5.03382 1.65835 4.38298 2.63239C3.73215 3.60644 3.38477 4.7516 3.38477 5.92308C3.38656 7.49342 4.01117 8.99894 5.12157 10.1093C6.23198 11.2197 7.73749 11.8444 9.30784 11.8462ZM9.30784 1.69231C10.1446 1.69231 10.9626 1.94044 11.6583 2.40532C12.3541 2.87021 12.8963 3.53096 13.2166 4.30403C13.5368 5.07711 13.6206 5.92777 13.4573 6.74846C13.2941 7.56915 12.8911 8.323 12.2994 8.91468C11.7078 9.50637 10.9539 9.90931 10.1332 10.0726C9.31253 10.2358 8.46187 10.152 7.6888 9.8318C6.91572 9.51158 6.25497 8.96931 5.79009 8.27357C5.3252 7.57782 5.07707 6.75984 5.07707 5.92308C5.07842 4.80142 5.52459 3.72609 6.31772 2.93296C7.11085 2.13983 8.18618 1.69365 9.30784 1.69231Z" fill="#38485B"/>
</svg>
