<svg width="22" height="22" viewBox="0 0 22 22" fill="none" xmlns="http://www.w3.org/2000/svg">
<path d="M11 2C12.78 2 14.5201 2.52784 16.0001 3.51677C17.4802 4.50571 18.6337 5.91131 19.3149 7.55585C19.9961 9.20038 20.1743 11.01 19.8271 12.7558C19.4798 14.5016 18.6226 16.1053 17.364 17.364C16.1053 18.6226 14.5016 19.4798 12.7558 19.8271C11.01 20.1743 9.20039 19.9961 7.55585 19.3149C5.91132 18.6337 4.50571 17.4802 3.51678 16.0001C2.52785 14.5201 2.00001 12.78 2.00001 11C2.00001 8.61305 2.94822 6.32387 4.63604 4.63604C6.32387 2.94821 8.61306 2 11 2ZM11 0C8.82441 0 6.69767 0.645139 4.88873 1.85383C3.07979 3.06253 1.66989 4.78049 0.83733 6.79048C0.00476617 8.80047 -0.213071 11.0122 0.211367 13.146C0.635804 15.2798 1.68345 17.2398 3.22183 18.7782C4.76021 20.3166 6.72022 21.3642 8.85401 21.7886C10.9878 22.2131 13.1995 21.9952 15.2095 21.1627C17.2195 20.3301 18.9375 18.9202 20.1462 17.1113C21.3549 15.3023 22 13.1756 22 11C22 8.08262 20.8411 5.28473 18.7782 3.22183C16.7153 1.15893 13.9174 0 11 0ZM9.984 16.428C9.98354 16.6625 10.0644 16.8899 10.2127 17.0715C10.3611 17.2531 10.5678 17.3777 10.7977 17.424C11.0275 17.4703 11.2664 17.4356 11.4735 17.3256C11.6806 17.2156 11.8432 17.0373 11.9336 16.8209C12.024 16.6046 12.0366 16.3635 11.9693 16.1389C11.902 15.9143 11.7589 15.7199 11.5644 15.5889C11.3699 15.458 11.136 15.3984 10.9026 15.4205C10.6691 15.4426 10.4505 15.5449 10.284 15.71C10.1892 15.8041 10.1139 15.9159 10.0625 16.0391C10.011 16.1623 9.98432 16.2945 9.984 16.428ZM11 14C11.2652 14 11.5196 13.8946 11.7071 13.7071C11.8946 13.5196 12 13.2652 12 13V12C12 11.736 12.134 11.517 12.624 10.977C12.755 10.833 12.885 10.71 13.009 10.591C13.4952 10.1738 13.8829 9.65402 14.144 9.069C14.355 8.58183 14.4431 8.05027 14.4006 7.52106C14.3581 6.99186 14.1861 6.4812 13.9 6.034C13.5762 5.57195 13.14 5.19996 12.6327 4.9531C12.1253 4.70625 11.5634 4.59264 11 4.623C10.3812 4.62882 9.77462 4.79645 9.24062 5.10923C8.70662 5.42202 8.26375 5.86908 7.95601 6.406C7.88726 6.51802 7.84125 6.64248 7.8206 6.77228C7.79995 6.90208 7.80508 7.03467 7.83567 7.16249C7.86627 7.29031 7.92174 7.41085 7.99893 7.51723C8.07611 7.62362 8.17349 7.71375 8.2855 7.7825C8.39752 7.85125 8.52198 7.89726 8.65178 7.9179C8.78158 7.93855 8.91418 7.93343 9.042 7.90283C9.16982 7.87224 9.29036 7.81676 9.39674 7.73958C9.50312 7.6624 9.59326 7.56502 9.662 7.453C9.79195 7.20889 9.98419 7.00352 10.2192 6.85775C10.4542 6.71197 10.7236 6.63098 11 6.623C11.2312 6.60161 11.4641 6.63688 11.6786 6.72574C11.8931 6.8146 12.0827 6.95439 12.231 7.133C12.3337 7.30389 12.3943 7.49677 12.4077 7.6957C12.4211 7.89463 12.3869 8.09389 12.308 8.277C12.1503 8.61315 11.9185 8.90923 11.63 9.143C11.472 9.293 11.31 9.449 11.142 9.633C10.4625 10.2394 10.0518 11.0908 10 12V13C10 13.2652 10.1054 13.5196 10.2929 13.7071C10.4804 13.8946 10.7348 14 11 14Z" fill="#38485B"/>
</svg>
