<svg width="18" height="18" viewBox="0 0 18 18" fill="none" xmlns="http://www.w3.org/2000/svg">
<path d="M12.2136 6.72429L9.90578 9L12.2136 11.2757C12.2779 11.3358 12.3291 11.4085 12.3641 11.4892C12.3991 11.57 12.4171 11.657 12.4171 11.745C12.4171 11.833 12.3991 11.92 12.3641 12.0008C12.3291 12.0815 12.2779 12.1542 12.2136 12.2143C12.1536 12.2739 12.0823 12.321 12.004 12.353C11.9257 12.385 11.8418 12.4012 11.7572 12.4007C11.5886 12.4 11.4269 12.333 11.3072 12.2143L8.99935 9.90643L6.72363 12.2143C6.6039 12.333 6.44228 12.4 6.27363 12.4007C6.18903 12.4012 6.10516 12.385 6.02684 12.353C5.94851 12.321 5.87727 12.2739 5.81721 12.2143C5.69747 12.0938 5.63027 11.9309 5.63027 11.7611C5.63027 11.5912 5.69747 11.4283 5.81721 11.3079L8.09292 9L5.81721 6.72429C5.71189 6.60131 5.65686 6.44312 5.66311 6.28132C5.66935 6.11953 5.73643 5.96606 5.85091 5.85157C5.9654 5.73708 6.11888 5.67001 6.28067 5.66376C6.44246 5.65751 6.60065 5.71254 6.72363 5.81786L8.99935 8.09357L11.2751 5.81786C11.3346 5.75623 11.4057 5.70693 11.4842 5.67277C11.5628 5.63861 11.6473 5.62026 11.733 5.61877C11.8186 5.61727 11.9038 5.63267 11.9835 5.66407C12.0632 5.69547 12.1359 5.74227 12.1976 5.80179C12.2592 5.8613 12.3085 5.93238 12.3426 6.01095C12.3768 6.08952 12.3952 6.17405 12.3967 6.25971C12.3981 6.34537 12.3827 6.43049 12.3513 6.5102C12.3199 6.58991 12.2731 6.66266 12.2136 6.72429ZM15.3636 15.3643C14.1049 16.6229 12.5013 17.4799 10.7555 17.8271C9.00967 18.1743 7.20012 17.996 5.55563 17.3148C3.91115 16.6336 2.5056 15.4801 1.51671 14C0.527817 12.52 0 10.78 0 9C0 7.22001 0.527817 5.47999 1.51671 3.99997C2.5056 2.51994 3.91115 1.36639 5.55563 0.685176C7.20012 0.00396047 9.00967 -0.174323 10.7555 0.172869C12.5013 0.520062 14.1049 1.37714 15.3636 2.63572C16.1995 3.47146 16.8625 4.46365 17.3148 5.55564C17.7672 6.64763 18 7.81803 18 9C18 10.182 17.7672 11.3524 17.3148 12.4444C16.8625 13.5364 16.1995 14.5285 15.3636 15.3643ZM14.4572 3.54215C13.3773 2.46596 12.0027 1.73391 10.507 1.43842C9.0113 1.14293 7.46159 1.29726 6.05355 1.88193C4.64551 2.46659 3.44228 3.45536 2.59581 4.72339C1.74934 5.99141 1.29758 7.48183 1.29758 9.00643C1.29758 10.531 1.74934 12.0214 2.59581 13.2895C3.44228 14.5575 4.64551 15.5463 6.05355 16.1309C7.46159 16.7156 9.0113 16.8699 10.507 16.5744C12.0027 16.2789 13.3773 15.5469 14.4572 14.4707C15.1764 13.754 15.747 12.9024 16.1364 11.9647C16.5257 11.0271 16.7261 10.0217 16.7261 9.00643C16.7261 7.99112 16.5257 6.9858 16.1364 6.04811C15.747 5.11043 15.1764 4.25883 14.4572 3.54215Z" fill="#EA5563"/>
</svg>
