<svg width="61" height="61" viewBox="0 0 61 61" fill="none" xmlns="http://www.w3.org/2000/svg">
<path d="M49.1504 60.5H11.6504C8.66671 60.5 5.80522 59.3147 3.69544 57.205C1.58565 55.0952 0.400391 52.2337 0.400391 49.25L0.400391 11.75C0.400391 8.76631 1.58565 5.90483 3.69544 3.79505C5.80522 1.68526 8.66671 0.5 11.6504 0.5L49.1504 0.5C52.1341 0.5 54.9956 1.68526 57.1053 3.79505C59.2151 5.90483 60.4004 8.76631 60.4004 11.75V49.25C60.4004 52.2337 59.2151 55.0952 57.1053 57.205C54.9956 59.3147 52.1341 60.5 49.1504 60.5Z" fill="#90C52D" fill-opacity="0.15"/>
<path d="M30.4004 15.5C22.126 15.5 15.4004 22.2256 15.4004 30.5C15.4004 38.7744 22.126 45.5 30.4004 45.5C38.6748 45.5 45.4004 38.7744 45.4004 30.5C45.4004 22.2256 38.6748 15.5 30.4004 15.5ZM21.6498 26.75C21.6498 25.3756 22.7748 24.2506 24.1491 24.2506C25.5254 24.2506 26.6504 25.3756 26.6504 26.75C26.6504 28.1244 25.5254 29.2494 24.151 29.2494C22.7748 29.2494 21.6498 28.1244 21.6498 26.75ZM37.5348 37.9025C35.6298 39.8075 33.0948 40.8575 30.4004 40.8575C27.706 40.8575 25.1729 39.8075 23.266 37.9025C23.0542 37.6637 22.9416 37.353 22.9512 37.034C22.9607 36.7149 23.0917 36.4115 23.3175 36.1858C23.5432 35.9601 23.8465 35.8291 24.1656 35.8195C24.4847 35.81 24.7953 35.9226 25.0341 36.1344C26.4666 37.5687 28.3735 38.3563 30.4004 38.3563C32.4273 38.3563 34.3341 37.5669 35.7666 36.1325C36.0051 35.9172 36.3171 35.8017 36.6383 35.8099C36.9595 35.8182 37.2652 35.9495 37.4923 36.1768C37.7193 36.4041 37.8504 36.71 37.8583 37.0312C37.8662 37.3524 37.7504 37.6643 37.5348 37.9025ZM36.6498 29.2494C35.2754 29.2494 34.1504 28.1244 34.1504 26.75C34.1504 25.3756 35.2754 24.2506 36.6498 24.2506C38.0241 24.2506 39.1491 25.3756 39.1491 26.75C39.1477 27.4124 38.8839 28.0473 38.4154 28.5157C37.947 28.9841 37.3122 29.2479 36.6498 29.2494Z" fill="#90C52D"/>
</svg>
