<svg width="61" height="61" viewBox="0 0 61 61" fill="none" xmlns="http://www.w3.org/2000/svg">
<path d="M49.5498 60.5H12.0498C9.06612 60.5 6.20464 59.3147 4.09485 57.205C1.98507 55.0952 0.799805 52.2337 0.799805 49.25L0.799805 11.75C0.799805 8.76631 1.98507 5.90483 4.09485 3.79505C6.20464 1.68526 9.06612 0.5 12.0498 0.5L49.5498 0.5C52.5335 0.5 55.395 1.68526 57.5048 3.79505C59.6145 5.90483 60.7998 8.76631 60.7998 11.75V49.25C60.7998 52.2337 59.6145 55.0952 57.5048 57.205C55.395 59.3147 52.5335 60.5 49.5498 60.5Z" fill="#FF9457" fill-opacity="0.15"/>
<path d="M30.7998 15.5C22.5254 15.5 15.7998 22.2256 15.7998 30.5C15.7998 38.7744 22.5254 45.5 30.7998 45.5C39.0742 45.5 45.7998 38.7744 45.7998 30.5C45.7998 22.2256 39.0742 15.5 30.7998 15.5ZM33.7004 25.3625L36.8261 23.1744C36.9257 23.1025 37.0387 23.0513 37.1583 23.0237C37.278 22.9961 37.402 22.9927 37.5231 23.0136C37.6441 23.0346 37.7597 23.0795 37.8632 23.1457C37.9666 23.212 38.0558 23.2982 38.1254 23.3994C38.4254 23.825 38.3261 24.4119 37.9004 24.6988L37.3623 25.0737L35.8754 26.1238L37.3623 27.1737L37.9004 27.5487C38.3261 27.8356 38.4254 28.4244 38.1254 28.8481C38.0414 28.9728 37.9276 29.0746 37.7944 29.1443C37.6612 29.2141 37.5127 29.2495 37.3623 29.2475C37.1748 29.2475 36.9873 29.1969 36.8242 29.0731L33.6986 26.885C33.5758 26.799 33.4755 26.6848 33.406 26.552C33.3366 26.4192 33.2999 26.2717 33.2992 26.1219C33.2992 25.8256 33.4492 25.5369 33.7004 25.3625ZM24.2373 25.0756L23.6992 24.7006C23.5982 24.6308 23.5122 24.5415 23.4461 24.4381C23.38 24.3347 23.3352 24.2191 23.3142 24.0981C23.2933 23.9772 23.2966 23.8532 23.3241 23.7336C23.3516 23.6139 23.4026 23.501 23.4742 23.4012C23.544 23.3003 23.6333 23.2143 23.7367 23.1482C23.8402 23.0821 23.9557 23.0372 24.0767 23.0163C24.1976 22.9953 24.3216 22.9987 24.4412 23.0262C24.5609 23.0536 24.6738 23.1046 24.7736 23.1762L27.8992 25.3644C28.1486 25.5387 28.2986 25.8275 28.2986 26.1275C28.2986 26.4275 28.1486 26.7144 27.8992 26.8906L24.7736 29.0787C24.6185 29.1932 24.43 29.2532 24.2373 29.2494C24.087 29.2512 23.9385 29.2157 23.8053 29.146C23.6721 29.0763 23.5583 28.9746 23.4742 28.85C23.4023 28.7504 23.3511 28.6374 23.3235 28.5177C23.2959 28.398 23.2925 28.274 23.3134 28.153C23.3344 28.032 23.3793 27.9163 23.4455 27.8129C23.5118 27.7095 23.598 27.6203 23.6992 27.5506L24.2373 27.1756L25.7242 26.1256L24.2373 25.0756ZM39.0854 37.6606C39.0069 37.805 38.9007 37.9324 38.7729 38.0356C38.6451 38.1389 38.4981 38.2158 38.3405 38.2622C38.1829 38.3085 38.0176 38.3233 37.8543 38.3056C37.6909 38.288 37.5327 38.2383 37.3886 38.1594L34.5254 36.5975L31.3604 38.18C31.187 38.2669 30.9957 38.3122 30.8017 38.3122C30.6077 38.3122 30.4164 38.2669 30.2429 38.18L27.0779 36.5975L24.2148 38.1594C23.9236 38.3183 23.5813 38.355 23.2631 38.2614C22.9448 38.1679 22.6768 37.9518 22.5179 37.6606C22.359 37.3695 22.3223 37.0271 22.4159 36.7089C22.5094 36.3907 22.7255 36.1226 23.0167 35.9637L26.4536 34.0887C26.6309 33.9927 26.8287 33.9407 27.0304 33.9371C27.2321 33.9335 27.4317 33.9784 27.6123 34.0681L30.7998 35.6656L33.9911 34.07C34.1717 33.9803 34.3713 33.9354 34.5729 33.9389C34.7746 33.9425 34.9725 33.9946 35.1498 34.0906L38.5867 35.9656C38.8773 36.1245 39.0931 36.3922 39.1866 36.71C39.2801 37.0278 39.2437 37.3696 39.0854 37.6606Z" fill="#FF9457"/>
</svg>
