<svg width="61" height="61" viewBox="0 0 61 61" fill="none" xmlns="http://www.w3.org/2000/svg">
<path d="M48.9502 60.5H11.4502C8.46651 60.5 5.60503 59.3147 3.49524 57.205C1.38546 55.0952 0.200195 52.2337 0.200195 49.25L0.200195 11.75C0.200195 8.76631 1.38546 5.90483 3.49524 3.79505C5.60503 1.68526 8.46651 0.5 11.4502 0.5L48.9502 0.5C51.9339 0.5 54.7954 1.68526 56.9051 3.79505C59.0149 5.90483 60.2002 8.76631 60.2002 11.75V49.25C60.2002 52.2337 59.0149 55.0952 56.9051 57.205C54.7954 59.3147 51.9339 60.5 48.9502 60.5Z" fill="#3CD09B" fill-opacity="0.15"/>
<path d="M30.2002 15.5C21.9258 15.5 15.2002 22.2256 15.2002 30.5C15.2002 38.7744 21.9258 45.5 30.2002 45.5C38.4746 45.5 45.2002 38.7744 45.2002 30.5C45.2002 22.2256 38.4746 15.5 30.2002 15.5ZM39.4889 37.4937C38.4562 38.9061 37.1056 40.0556 35.5463 40.8494C33.9871 41.6432 32.263 42.0589 30.5133 42.0631C30.1816 42.0631 29.8635 41.9314 29.629 41.6968C29.3945 41.4623 29.2627 41.1442 29.2627 40.8125C29.2627 40.4808 29.3945 40.1627 29.629 39.9282C29.8635 39.6936 30.1816 39.5619 30.5133 39.5619C33.2508 39.5619 35.8514 38.2381 37.4696 36.02C37.665 35.7522 37.9588 35.573 38.2864 35.5219C38.6139 35.4707 38.9483 35.5518 39.2161 35.7472C39.4839 35.9426 39.6631 36.2364 39.7143 36.564C39.7654 36.8915 39.6844 37.226 39.4889 37.4937ZM36.2752 33.0256C33.2002 33.0256 31.2502 31.0756 30.2002 29.15C29.1502 31.0756 27.2002 33.0256 24.1252 33.0256C19.5371 33.0256 18.3258 28.0381 18.3258 25.4C18.3258 24.9256 18.6764 24.5244 19.1508 24.4756C19.4639 24.425 26.5627 23.5756 30.2002 25.5256C33.8377 23.5756 40.9383 24.425 41.2496 24.4756C41.7239 24.5262 42.0746 24.9256 42.0746 25.4C42.0746 28.0381 40.8633 33.0256 36.2752 33.0256Z" fill="#3CD09B"/>
</svg>
