<svg width="61" height="61" viewBox="0 0 61 61" fill="none" xmlns="http://www.w3.org/2000/svg">
<path d="M49.3496 60.5H11.8496C8.86592 60.5 6.00444 59.3147 3.89466 57.205C1.78487 55.0952 0.599609 52.2337 0.599609 49.25L0.599609 11.75C0.599609 8.76631 1.78487 5.90483 3.89466 3.79505C6.00444 1.68526 8.86592 0.5 11.8496 0.5L49.3496 0.5C52.3333 0.5 55.1948 1.68526 57.3046 3.79505C59.4143 5.90483 60.5996 8.76631 60.5996 11.75V49.25C60.5996 52.2337 59.4143 55.0952 57.3046 57.205C55.1948 59.3147 52.3333 60.5 49.3496 60.5Z" fill="#FFC700" fill-opacity="0.15"/>
<path d="M30.5996 15.5C22.329 15.5 15.5996 22.2294 15.5996 30.5C15.5996 38.7706 22.329 45.5 30.5996 45.5C38.8702 45.5 45.5996 38.7706 45.5996 30.5C45.5996 22.2294 38.8702 15.5 30.5996 15.5ZM21.849 26.8325C21.8795 26.1899 22.1562 25.5837 22.6218 25.1397C23.0873 24.6957 23.706 24.448 24.3493 24.448C24.9926 24.448 25.6113 24.6957 26.0768 25.1397C26.5424 25.5837 26.8191 26.1899 26.8496 26.8325C26.8191 27.4751 26.5424 28.0813 26.0768 28.5253C25.6113 28.9693 24.9926 29.217 24.3493 29.217C23.706 29.217 23.0873 28.9693 22.6218 28.5253C22.1562 28.0813 21.8795 27.4751 21.849 26.8325ZM36.3071 36.1644L25.6815 39.7062C25.3725 39.7919 25.0424 39.7557 24.7594 39.605C24.4763 39.4542 24.262 39.2005 24.1607 38.8963C24.0594 38.5921 24.0788 38.2606 24.2149 37.9702C24.351 37.6799 24.5934 37.4529 24.8921 37.3363L35.5177 33.7944C35.832 33.6897 36.175 33.7142 36.4713 33.8624C36.7675 34.0106 36.9927 34.2704 37.0974 34.5847C37.2021 34.899 37.1776 35.242 37.0294 35.5382C36.8812 35.8345 36.6214 36.0597 36.3071 36.1644ZM36.849 29.3319C35.4709 29.3319 34.3496 28.2106 34.3496 26.8325C34.3496 25.4544 35.4709 24.3331 36.849 24.3331C38.2271 24.3331 39.3484 25.4544 39.3484 26.8325C39.3484 27.4954 39.085 28.1311 38.6163 28.5998C38.1476 29.0685 37.5119 29.3319 36.849 29.3319Z" fill="#FFC700"/>
</svg>
