<svg width="60" height="61" viewBox="0 0 60 61" fill="none" xmlns="http://www.w3.org/2000/svg">
<g clip-path="url(#clip0_139_424)">
<path d="M48.75 60.5H11.25C8.26631 60.5 5.40483 59.3147 3.29505 57.205C1.18526 55.0952 0 52.2337 0 49.25L0 11.75C0 8.76631 1.18526 5.90483 3.29505 3.79505C5.40483 1.68526 8.26631 0.5 11.25 0.5L48.75 0.5C51.7337 0.5 54.5952 1.68526 56.705 3.79505C58.8147 5.90483 60 8.76631 60 11.75V49.25C60 52.2337 58.8147 55.0952 56.705 57.205C54.5952 59.3147 51.7337 60.5 48.75 60.5Z" fill="#FFE6E2"/>
<path d="M48.75 60.5H11.25C8.26631 60.5 5.40483 59.3147 3.29505 57.205C1.18526 55.0952 0 52.2337 0 49.25L0 11.75C0 8.76631 1.18526 5.90483 3.29505 3.79505C5.40483 1.68526 8.26631 0.5 11.25 0.5L48.75 0.5C51.7337 0.5 54.5952 1.68526 56.705 3.79505C58.8147 5.90483 60 8.76631 60 11.75V49.25C60 52.2337 58.8147 55.0952 56.705 57.205C54.5952 59.3147 51.7337 60.5 48.75 60.5Z" fill="#FFE6E2"/>
<path d="M30 15.5C26.0218 15.5 22.2064 17.0804 19.3934 19.8934C16.5804 22.7064 15 26.5218 15 30.5C15 34.4782 16.5804 38.2936 19.3934 41.1066C22.2064 43.9196 26.0218 45.5 30 45.5C33.9782 45.5 37.7936 43.9196 40.6066 41.1066C43.4196 38.2936 45 34.4782 45 30.5C45 26.5218 43.4196 22.7064 40.6066 19.8934C37.7936 17.0804 33.9782 15.5 30 15.5ZM32.9175 22.9494L36.0431 20.8663C36.1454 20.7937 36.2613 20.7424 36.3838 20.7154C36.5063 20.6885 36.6329 20.6864 36.7563 20.7092C36.8796 20.7321 36.9971 20.7795 37.1018 20.8485C37.2064 20.9176 37.2962 21.007 37.3657 21.1114C37.4352 21.2158 37.4831 21.3331 37.5065 21.4563C37.5298 21.5796 37.5282 21.7062 37.5018 21.8288C37.4753 21.9514 37.4245 22.0675 37.3524 22.1701C37.2803 22.2727 37.1883 22.3598 37.0819 22.4263L33.9563 24.5094C33.854 24.5783 33.7392 24.6262 33.6183 24.6504C33.4975 24.6746 33.373 24.6746 33.2522 24.6503C33.1313 24.6261 33.0165 24.5781 32.9143 24.5092C32.8121 24.4402 32.7246 24.3517 32.6569 24.2488C32.5192 24.0419 32.4694 23.7888 32.5182 23.5451C32.5671 23.3015 32.7107 23.0872 32.9175 22.9494ZM22.6575 21.125C22.7953 20.9182 23.0096 20.7746 23.2532 20.7257C23.4969 20.6769 23.75 20.7267 23.9569 20.8644L27.0825 22.9475C27.1889 23.0139 27.2809 23.101 27.353 23.2036C27.4251 23.3063 27.4759 23.4223 27.5024 23.5449C27.5289 23.6675 27.5305 23.7942 27.5071 23.9174C27.4837 24.0406 27.4359 24.1579 27.3663 24.2623C27.2968 24.3667 27.2071 24.4561 27.1024 24.5252C26.9977 24.5943 26.8802 24.6417 26.7569 24.6645C26.6336 24.6874 26.5069 24.6853 26.3844 24.6583C26.2619 24.6313 26.1461 24.58 26.0438 24.5075L22.9181 22.4244C22.7113 22.2866 22.5677 22.0723 22.5189 21.8286C22.47 21.585 22.5199 21.3319 22.6575 21.125ZM23.7506 30.5C22.3725 30.5 21.2512 29.3787 21.2512 28.0006C21.2512 26.6225 22.3725 25.5012 23.7506 25.5012C24.3967 25.5263 25.0081 25.8006 25.4564 26.2665C25.9046 26.7325 26.155 27.354 26.155 28.0006C26.155 28.6472 25.9046 29.2687 25.4564 29.7347C25.0081 30.2007 24.3967 30.475 23.7506 30.5ZM30 41.6881C27.9319 41.6881 26.25 39.7531 26.25 37.3756C26.25 34.9981 27.9319 33.0631 30 33.0631C32.0681 33.0631 33.75 34.9981 33.75 37.3756C33.75 39.7531 32.0681 41.6881 30 41.6881ZM36.2494 30.5C34.8713 30.5 33.75 29.3787 33.75 28.0006C33.75 26.6225 34.8713 25.5012 36.2494 25.5012C37.6275 25.5012 38.7488 26.6225 38.7488 28.0006C38.7488 29.3787 37.6294 30.5 36.2494 30.5Z" fill="#FC573B"/>
</g>
<defs>
<clipPath id="clip0_139_424">
<rect width="60" height="60" fill="white" transform="translate(0 0.5)"/>
</clipPath>
</defs>
</svg>
