<svg width="20" height="22" viewBox="0 0 20 22" fill="none" xmlns="http://www.w3.org/2000/svg">
<path d="M12.6191 20.01C12.4599 20.5821 12.1177 21.0863 11.6449 21.4456C11.172 21.8048 10.5945 21.9993 10.0006 21.9993C9.40679 21.9993 8.82928 21.8048 8.35641 21.4456C7.88355 21.0863 7.54135 20.5821 7.38214 20.01H12.6191ZM19.0561 18.51H0.94614C0.771019 18.5125 0.598749 18.4655 0.449119 18.3745C0.299489 18.2835 0.178566 18.1521 0.100242 17.9954C0.0219173 17.8388 -0.0106325 17.6632 0.0063309 17.4889C0.0232943 17.3146 0.0890831 17.1486 0.19614 17.01L2.89614 13.438V9.138C2.90979 7.434 3.53319 5.79123 4.65345 4.50716C5.7737 3.2231 7.31674 2.38264 9.00314 2.138V1C9.00314 0.734784 9.1085 0.48043 9.29603 0.292893C9.48357 0.105357 9.73792 0 10.0031 0C10.2684 0 10.5227 0.105357 10.7102 0.292893C10.8978 0.48043 11.0031 0.734784 11.0031 1V2.081C12.7067 2.31622 14.2675 3.15996 15.3974 4.45638C16.5273 5.7528 17.1499 7.41431 17.1501 9.134V13.486L19.8061 17.008C19.9132 17.1466 19.979 17.3126 19.9959 17.4869C20.0129 17.6612 19.9804 17.8368 19.902 17.9935C19.8237 18.1501 19.7028 18.2815 19.5532 18.3725C19.4035 18.4635 19.2313 18.5105 19.0561 18.508V18.51ZM16.9171 16.51L15.5481 14.7L15.1481 14.17V9.17C15.1481 8.49665 15.0155 7.82989 14.7578 7.20779C14.5002 6.58569 14.1225 6.02044 13.6463 5.54431C13.1702 5.06818 12.6049 4.69049 11.9829 4.43281C11.3608 4.17513 10.694 4.0425 10.0206 4.0425C9.34729 4.0425 8.68053 4.17513 8.05843 4.43281C7.43633 4.69049 6.87108 5.06818 6.39495 5.54431C5.91882 6.02044 5.54113 6.58569 5.28345 7.20779C5.02577 7.82989 4.89314 8.49665 4.89314 9.17V14.17L4.49314 14.71L3.08414 16.51H16.9171Z" fill="#38485B"/>
</svg>
