<svg width="21" height="21" viewBox="0 0 21 21" fill="none" xmlns="http://www.w3.org/2000/svg">
<path d="M2.64893 8.83333H8.48226V3H2.64893V8.83333ZM4.31559 4.66667H6.81559V7.16667H4.31559V4.66667Z" fill="#D4D4D4"/>
<path d="M2.64893 18H8.48226V12.1667H2.64893V18ZM4.31559 13.8333H6.81559V16.3333H4.31559V13.8333Z" fill="#D4D4D4"/>
<path d="M11.8154 3V8.83333H17.6488V3H11.8154ZM15.9821 7.16667H13.4821V4.66667H15.9821V7.16667Z" fill="#D4D4D4"/>
<path d="M15.9824 13.8333H13.4824V16.3333H15.9824V13.8333Z" fill="#D4D4D4"/>
<path d="M13.4821 12.1667H11.8154V13.8333H13.4821V12.1667Z" fill="#D4D4D4"/>
<path d="M17.6491 12.1667H15.9824V13.8333H17.6491V12.1667Z" fill="#D4D4D4"/>
<path d="M17.6491 16.3333H15.9824V18H17.6491V16.3333Z" fill="#D4D4D4"/>
<path d="M13.4821 16.3333H11.8154V18H13.4821V16.3333Z" fill="#D4D4D4"/>
</svg>
