<svg width="21" height="20" viewBox="0 0 21 20" fill="none" xmlns="http://www.w3.org/2000/svg">
<path d="M19.9111 11.5897L19.0526 10.9047C18.4646 10.4356 18.4657 9.56352 19.0527 9.09528L19.9111 8.41036C20.2065 8.17585 20.4062 7.84705 20.4742 7.48284C20.5423 7.11864 20.4744 6.74284 20.2826 6.42278L18.5876 3.57723C18.3975 3.25622 18.0957 3.0113 17.7362 2.88634C17.3768 2.76138 16.9832 2.76455 16.6259 2.89528L15.5847 3.27337C14.8715 3.53227 14.0929 3.09559 13.9679 2.36864L13.7851 1.30559C13.7234 0.94034 13.5294 0.608349 13.238 0.369109C12.9466 0.12987 12.5769 -0.000980849 12.195 5.62464e-06H8.80503C8.42315 -0.000988639 8.05338 0.129863 7.76199 0.369111C7.47061 0.608359 7.27665 0.940365 7.21488 1.30563L7.03207 2.36864C6.90685 3.09688 6.12717 3.53184 5.41532 3.2734L4.37412 2.89528C4.01686 2.76455 3.62325 2.76138 3.2638 2.88634C2.90435 3.0113 2.60255 3.25622 2.41246 3.57723L0.717482 6.42274C0.52566 6.74279 0.457697 7.1186 0.525772 7.48281C0.593847 7.84702 0.793512 8.17583 1.08899 8.41032L1.94738 9.09524C2.53546 9.56446 2.53429 10.4364 1.94738 10.9047L1.08895 11.5896C0.793478 11.8241 0.593819 12.1529 0.525744 12.5171C0.457669 12.8813 0.525627 13.2571 0.717442 13.5772L2.41246 16.4227C2.80814 17.0869 3.63304 17.3737 4.37412 17.1047L5.41528 16.7266C6.12858 16.4676 6.90705 16.9046 7.03203 17.6313L7.21484 18.6943C7.2766 19.0596 7.47055 19.3916 7.76194 19.6309C8.05332 19.8701 8.4231 20.001 8.80499 20H12.195C12.5769 20.001 12.9466 19.8701 13.238 19.6309C13.5294 19.3916 13.7233 19.0596 13.7851 18.6944L13.9679 17.6314C14.093 16.9034 14.8727 16.4681 15.5847 16.7267L16.6259 17.1047C16.9832 17.2355 17.3768 17.2387 17.7362 17.1137C18.0957 16.9888 18.3975 16.7438 18.5876 16.4228L20.2826 13.5772C20.4744 13.2571 20.5423 12.8813 20.4742 12.5171C20.4062 12.153 20.2065 11.8242 19.9111 11.5897ZM17.1915 15.6415L16.1503 15.2634C14.4858 14.6591 12.6694 15.6787 12.3778 17.3745L12.195 18.4375H8.80503L8.62222 17.3745C8.33007 15.6754 6.51096 14.6603 4.84976 15.2634L3.80856 15.6415L2.11358 12.796L2.97197 12.1111C4.34421 11.0161 4.34135 8.98161 2.97197 7.88895L2.11358 7.20403L3.8086 4.35848L4.84976 4.73657C6.51423 5.34087 8.33063 4.32133 8.62222 2.62551L8.80499 1.56251H12.195L12.3778 2.62551C12.6699 4.32481 14.4891 5.33962 16.1502 4.73657L17.1914 4.35848L18.8868 7.20364L18.8864 7.20399L18.028 7.88891C16.6558 8.98376 16.6585 11.0183 18.028 12.111L18.8864 12.7959L17.1915 15.6415ZM10.5 6.14583C8.30738 6.14583 6.52354 7.87481 6.52354 10C6.52354 12.1252 8.30738 13.8542 10.5 13.8542C12.6926 13.8542 14.4765 12.1252 14.4765 10C14.4765 7.87481 12.6926 6.14583 10.5 6.14583ZM10.5 12.2917C9.19628 12.2917 8.13561 11.2636 8.13561 10C8.13561 8.73637 9.19628 7.70833 10.5 7.70833C11.8037 7.70833 12.8644 8.73637 12.8644 10C12.8644 11.2636 11.8037 12.2917 10.5 12.2917Z" fill="white"/>
</svg>
