<svg width="26" height="15" viewBox="0 0 26 15" fill="none" xmlns="http://www.w3.org/2000/svg">
<path fill-rule="evenodd" clip-rule="evenodd" d="M24.8107 2.81311C24.8944 2.81311 24.9765 2.8355 25.0486 2.87797C25.1207 2.92044 25.1801 2.98144 25.2207 3.05462C25.2613 3.12781 25.2815 3.21051 25.2793 3.29416C25.2771 3.37781 25.2526 3.45934 25.2082 3.53029L24.057 5.37248C24.9689 6.65316 25.3504 8.23677 25.1219 9.79224C24.8934 11.3477 24.0724 12.7546 22.8306 13.7189C21.5888 14.6831 20.0224 15.13 18.4588 14.9662C16.8952 14.8023 15.4554 14.0404 14.4405 12.8397C14.4405 12.8397 13.8166 13.7753 13.3901 14.4151C13.3473 14.4793 13.2893 14.532 13.2212 14.5684C13.1532 14.6048 13.0772 14.6238 13.0001 14.6238C12.9229 14.6238 12.8469 14.6048 12.7789 14.5684C12.7109 14.532 12.6529 14.4793 12.6101 14.4151L11.5596 12.8397C10.5447 14.0404 9.10496 14.8023 7.54135 14.9662C5.97774 15.13 4.41131 14.6831 3.16954 13.7189C1.92778 12.7546 1.10681 11.3477 0.878261 9.79224C0.649714 8.23677 1.03129 6.65316 1.9432 5.37248C1.9432 5.37248 1.26539 4.28733 0.791954 3.53029C0.747607 3.45934 0.723061 3.37781 0.720865 3.29416C0.718668 3.21051 0.738902 3.12781 0.779465 3.05462C0.820027 2.98144 0.87944 2.92044 0.951536 2.87797C1.02363 2.8355 1.10578 2.81311 1.18945 2.81311H3.96164C6.61987 0.981424 9.77188 0.000610352 13.0001 0.000610352C16.2283 0.000610352 19.3803 0.981424 22.0385 2.81311H24.8107Z" fill="#003C37"/>
<path fill-rule="evenodd" clip-rule="evenodd" d="M18.2158 2.87593C14.8668 1.54201 11.1341 1.54201 7.78516 2.87593C9.23022 3.08741 10.5514 3.81046 11.5085 4.91361C12.4656 6.01675 12.995 7.42674 13.0005 8.88718V8.90687C13.0012 7.44303 13.5285 6.02831 14.486 4.92106C15.4435 3.81381 16.7674 3.08791 18.2158 2.87593Z" fill="#FFC300"/>
<path d="M6.90625 13.1256C9.2362 13.1256 11.125 11.2368 11.125 8.90686C11.125 6.57691 9.2362 4.68811 6.90625 4.68811C4.5763 4.68811 2.6875 6.57691 2.6875 8.90686C2.6875 11.2368 4.5763 13.1256 6.90625 13.1256Z" fill="white"/>
<path d="M6.90625 11.2506C8.20067 11.2506 9.25 10.2013 9.25 8.90686C9.25 7.61244 8.20067 6.56311 6.90625 6.56311C5.61183 6.56311 4.5625 7.61244 4.5625 8.90686C4.5625 10.2013 5.61183 11.2506 6.90625 11.2506Z" fill="#003C37"/>
<path d="M6.90625 9.84436C7.42402 9.84436 7.84375 9.42463 7.84375 8.90686C7.84375 8.38909 7.42402 7.96936 6.90625 7.96936C6.38848 7.96936 5.96875 8.38909 5.96875 8.90686C5.96875 9.42463 6.38848 9.84436 6.90625 9.84436Z" fill="#FF5F32"/>
<path d="M19.0938 13.1256C21.4237 13.1256 23.3125 11.2368 23.3125 8.90686C23.3125 6.57691 21.4237 4.68811 19.0938 4.68811C16.7638 4.68811 14.875 6.57691 14.875 8.90686C14.875 11.2368 16.7638 13.1256 19.0938 13.1256Z" fill="white"/>
<path d="M19.0938 11.2506C20.3882 11.2506 21.4375 10.2013 21.4375 8.90686C21.4375 7.61244 20.3882 6.56311 19.0938 6.56311C17.7993 6.56311 16.75 7.61244 16.75 8.90686C16.75 10.2013 17.7993 11.2506 19.0938 11.2506Z" fill="#003C37"/>
<path d="M19.0938 9.84436C19.6115 9.84436 20.0312 9.42463 20.0312 8.90686C20.0312 8.38909 19.6115 7.96936 19.0938 7.96936C18.576 7.96936 18.1562 8.38909 18.1562 8.90686C18.1562 9.42463 18.576 9.84436 19.0938 9.84436Z" fill="#00B487"/>
</svg>
