<svg width="122" height="13" viewBox="0 0 122 13" fill="none" xmlns="http://www.w3.org/2000/svg">
<path d="M1.05621 2.63054C0.933477 2.63054 0.833984 2.5311 0.833984 2.40832V0.726434C0.833984 0.603656 0.933477 0.504211 1.05621 0.504211H13.6555C13.7783 0.504211 13.8778 0.603656 13.8778 0.726434V2.40832C13.8778 2.5311 13.7783 2.63054 13.6555 2.63054H9.16691C9.04417 2.63054 8.94468 2.7301 8.94468 2.85277V11.8204C8.94468 11.9432 8.8452 12.0427 8.72246 12.0427H5.96707C5.84434 12.0427 5.74485 11.9432 5.74485 11.8204V2.85277C5.74485 2.7301 5.64535 2.63054 5.52263 2.63054H1.05621Z" fill="#C9C9C9"/>
<path d="M20.7994 11.8204C20.7994 11.9432 20.6999 12.0427 20.5772 12.0427H17.8218C17.6991 12.0427 17.5996 11.9432 17.5996 11.8204V0.726434C17.5996 0.603656 17.6991 0.504211 17.8218 0.504211H20.5772C20.6999 0.504211 20.7994 0.603656 20.7994 0.726434V4.60066C20.7994 4.72343 20.8989 4.82288 21.0216 4.82288H27.5991C27.7217 4.82288 27.8213 4.72343 27.8213 4.60066V0.726434C27.8213 0.603656 27.9207 0.504211 28.0435 0.504211H30.7766C30.8994 0.504211 30.9988 0.603656 30.9988 0.726434V11.8204C30.9988 11.9432 30.8994 12.0427 30.7766 12.0427H28.0435C27.9207 12.0427 27.8213 11.9432 27.8213 11.8204V7.20443C27.8213 7.08177 27.7217 6.98221 27.5991 6.98221H21.0216C20.8989 6.98221 20.7994 7.08177 20.7994 7.20443V11.8204Z" fill="#C9C9C9"/>
<path d="M47.4376 11.8204C47.4376 11.9432 47.338 12.0427 47.2154 12.0427H35.9937C35.8709 12.0427 35.7715 11.9432 35.7715 11.8204V0.726434C35.7715 0.603656 35.8709 0.504211 35.9937 0.504211H46.9709C47.0936 0.504211 47.1932 0.603656 47.1932 0.726434V2.40832C47.1932 2.5311 47.0936 2.63054 46.9709 2.63054H39.1935C39.0708 2.63054 38.9713 2.7301 38.9713 2.85277V4.63366C38.9713 4.75632 39.0708 4.85588 39.1935 4.85588H45.3709C45.4937 4.85588 45.5932 4.95532 45.5932 5.0781V6.72699C45.5932 6.84977 45.4937 6.94921 45.3709 6.94921H39.1935C39.0708 6.94921 38.9713 7.04877 38.9713 7.17143V9.6941C38.9713 9.81677 39.0708 9.91632 39.1935 9.91632H47.2154C47.338 9.91632 47.4376 10.0158 47.4376 10.1385V11.8204Z" fill="#C9C9C9"/>
<path d="M54.5182 11.8204C54.5182 11.9432 54.4188 12.0427 54.296 12.0427H51.5406C51.4179 12.0427 51.3184 11.9432 51.3184 11.8204V0.726434C51.3184 0.603656 51.4179 0.504211 51.5406 0.504211H62.4956C62.6184 0.504211 62.7178 0.603656 62.7178 0.726434V2.40832C62.7178 2.5311 62.6184 2.63054 62.4956 2.63054H54.7405C54.6177 2.63054 54.5182 2.7301 54.5182 2.85277V4.74899C54.5182 4.87177 54.6177 4.97121 54.7405 4.97121H60.629C60.7518 4.97121 60.8512 5.07077 60.8512 5.19343V6.84243C60.8512 6.9651 60.7518 7.06466 60.629 7.06466H54.7405C54.6177 7.06466 54.5182 7.1641 54.5182 7.28688V11.8204Z" fill="#C9C9C9"/>
<path d="M77.6938 11.8204C77.6938 11.9432 77.5944 12.0427 77.4716 12.0427H66.8277C66.705 12.0427 66.6055 11.9432 66.6055 11.8204V0.726434C66.6055 0.603656 66.705 0.504211 66.8277 0.504211H69.5831C69.7059 0.504211 69.8054 0.603656 69.8054 0.726434V9.6941C69.8054 9.81677 69.9048 9.91632 70.0276 9.91632H77.4716C77.5944 9.91632 77.6938 10.0158 77.6938 10.1385V11.8204Z" fill="#C9C9C9"/>
<path d="M84.3759 8.97677C85.2943 9.691 86.4425 10.0482 87.8202 10.0482C89.1831 10.0482 90.3238 9.691 91.2422 8.97677C92.1607 8.26244 92.6199 7.36133 92.6199 6.27344C92.6199 5.18555 92.1607 4.28444 91.2422 3.57011C90.3238 2.85588 89.1831 2.49877 87.8202 2.49877C86.4425 2.49877 85.2943 2.85588 84.3759 3.57011C83.4722 4.27344 83.0205 5.17455 83.0205 6.27344C83.0205 7.37233 83.4722 8.27344 84.3759 8.97677ZM79.7539 6.27344C79.7539 4.5811 80.5169 3.16355 82.0427 2.02066C83.5686 0.855883 85.4943 0.273438 87.8202 0.273438C90.1312 0.273438 92.0496 0.855883 93.5755 2.02066C95.1161 3.18555 95.8865 4.6031 95.8865 6.27344C95.8865 7.93277 95.1161 9.35033 93.5755 10.5262C92.0496 11.691 90.1312 12.2734 87.8202 12.2734C85.4943 12.2734 83.5686 11.691 82.0427 10.5262C80.5169 9.36133 79.7539 7.94377 79.7539 6.27344Z" fill="#C9C9C9"/>
<path d="M106.294 11.9777C106.258 12.0573 106.179 12.1086 106.092 12.1086H103.557C103.469 12.1086 103.39 12.0573 103.354 11.9776L98.3324 0.817668C98.2661 0.670557 98.3737 0.504222 98.535 0.504222H101.598C101.688 0.504222 101.769 0.558556 101.803 0.64189L104.75 7.80667C104.824 7.98711 105.078 7.99122 105.158 7.81322L108.398 0.602332C108.434 0.522554 108.514 0.471222 108.601 0.471222H110.803C110.89 0.471222 110.969 0.522332 111.005 0.601888L114.267 7.81522C114.348 7.99278 114.601 7.98844 114.676 7.80822L117.622 0.64189C117.657 0.558556 117.738 0.504222 117.828 0.504222H120.823C120.985 0.504222 121.092 0.670889 121.026 0.818L115.982 11.9779C115.947 12.0574 115.868 12.1086 115.78 12.1086H113.247C113.158 12.1086 113.079 12.0567 113.043 11.9762L109.903 4.86656C109.825 4.69067 109.576 4.68978 109.497 4.86511L106.294 11.9777Z" fill="#C9C9C9"/>
</svg>
