<svg width="87" height="23" viewBox="0 0 87 23" fill="none" xmlns="http://www.w3.org/2000/svg">
<path d="M20.5779 21.8875V14.3397C20.5779 12.7673 19.9203 11.9667 18.6338 11.9667C17.3329 11.9667 16.6754 12.753 16.6754 14.3397V21.8875H12.83V14.3397C12.83 12.7673 12.1867 11.9667 10.9002 11.9667C9.59933 11.9667 8.95606 12.753 8.95606 14.3397V21.8875H5.125V13.8966C5.125 12.2526 5.6968 11.009 6.8404 10.1656C7.84105 9.40792 9.21337 9.03625 10.9288 9.03625C12.6585 9.03625 13.945 9.4794 14.7741 10.38C15.4889 9.49369 16.7754 9.03625 18.6481 9.03625C20.3635 9.03625 21.7215 9.40792 22.7221 10.1656C23.8657 11.009 24.4375 12.2526 24.4375 13.8966V21.8875H20.5779Z" fill="#C9C9C9"/>
<path d="M67.6523 21.8446V0.302017H71.4977V21.8589H67.6523V21.8446Z" fill="#C9C9C9"/>
<path d="M62.7489 21.8446V20.5723C62.4058 21.0298 61.8197 21.4014 61.0049 21.673C60.2758 21.9304 59.5754 22.0447 58.9178 22.0447C57.088 22.0447 55.6156 21.4157 54.5006 20.1578C53.3856 18.8998 52.8281 17.3417 52.8281 15.4833C52.8281 13.6536 53.3713 12.124 54.4578 10.8803C55.4155 9.77961 56.988 9.02197 58.8034 9.02197C60.8333 9.02197 62.0341 9.7939 62.7489 10.6659V0.273438H66.4941V21.8303H62.7489V21.8446ZM62.7489 14.6685C62.7489 13.9823 62.4201 13.3248 61.7768 12.6958C61.1335 12.0668 60.4474 11.7523 59.7755 11.7523C58.7891 11.7523 58.0172 12.1526 57.4454 12.9531C56.9451 13.6678 56.6878 14.5398 56.6878 15.5548C56.6878 16.5697 56.9451 17.4274 57.4454 18.1279C58.0172 18.957 58.8034 19.3573 59.7755 19.3573C60.3616 19.3573 61.0192 19.0857 61.7196 18.5139C62.4201 17.9564 62.7631 17.3845 62.7631 16.7842V14.6685H62.7489Z" fill="#C9C9C9"/>
<path d="M45.5956 22.1877C43.6515 22.1877 42.0361 21.573 40.7782 20.3293C39.5059 19.0999 38.877 17.5132 38.877 15.5548C38.877 13.6107 39.5059 12.0239 40.7782 10.7946C42.0504 9.56518 43.6515 8.9362 45.5956 8.9362C47.5397 8.9362 49.1551 9.55089 50.4273 10.7946C51.7139 12.0239 52.3571 13.625 52.3571 15.5548C52.3571 17.4989 51.7139 19.0856 50.4273 20.3293C49.1551 21.573 47.5397 22.1877 45.5956 22.1877ZM45.5956 12.0382C44.6664 12.0382 43.9517 12.3813 43.4514 13.096C42.951 13.7965 42.708 14.6256 42.708 15.5977C42.708 16.5697 42.9367 17.3845 43.4085 18.0421C43.9374 18.7997 44.6664 19.1714 45.5956 19.1714C46.5248 19.1714 47.2538 18.7997 47.7827 18.0421C48.2688 17.3702 48.5118 16.5554 48.5118 15.5977C48.5118 14.6256 48.2831 13.8108 47.8113 13.1532C47.2824 12.3956 46.5391 12.0382 45.5956 12.0382Z" fill="#C9C9C9"/>
<path d="M31.6991 22.1877C29.755 22.1877 28.1397 21.573 26.8817 20.3293C25.6094 19.0999 24.9805 17.5132 24.9805 15.5548C24.9805 13.6107 25.6094 12.0239 26.8817 10.7946C28.154 9.56518 29.755 8.9362 31.6991 8.9362C33.6432 8.9362 35.2586 9.55089 36.5308 10.7946C37.8031 12.0382 38.4607 13.625 38.4607 15.5548C38.4607 17.4989 37.8174 19.0856 36.5308 20.3293C35.2586 21.573 33.6432 22.1877 31.6991 22.1877ZM31.6991 12.0382C30.7699 12.0382 30.0552 12.3813 29.5549 13.096C29.0545 13.7965 28.8115 14.6256 28.8115 15.5977C28.8115 16.5697 29.0402 17.3845 29.512 18.0421C30.0409 18.7997 30.7699 19.1714 31.6991 19.1714C32.6283 19.1714 33.3573 18.7997 33.8863 18.0421C34.3723 17.3702 34.6153 16.5554 34.6153 15.5977C34.6153 14.6256 34.3866 13.8108 33.9148 13.1532C33.3859 12.3956 32.6426 12.0382 31.6991 12.0382Z" fill="#C9C9C9"/>
<path d="M76.0426 16.7413C76.1284 17.6562 77.3149 19.6289 79.2733 19.6289C81.1745 19.6289 82.0751 18.5282 82.118 18.085L86.1635 18.0564C85.7203 19.4144 83.9335 22.2734 79.2018 22.2734C77.2434 22.2734 75.4279 21.6588 74.1414 20.4437C72.8548 19.2143 72.1973 17.6276 72.1973 15.6549C72.1973 13.625 72.8405 12.0096 74.1414 10.7946C75.4422 9.59378 77.1147 8.99339 79.1732 8.99339C81.4175 8.99339 83.1615 9.73673 84.4195 11.2234C85.5774 12.5957 86.1635 14.4398 86.1635 16.7556H76.0426V16.7413ZM82.3181 14.3683C82.1609 13.5392 81.8178 12.8673 81.2889 12.3384C80.6885 11.7666 80.0023 11.4807 79.2304 11.4807C78.4299 11.4807 77.758 11.7523 77.2291 12.3098C76.6859 12.8673 76.3285 13.5392 76.1427 14.3683H82.3181Z" fill="#C9C9C9"/>
<path d="M12.5732 8.45018L16.39 5.66266L16.3471 5.49112C9.47123 6.33452 6.34063 6.93491 0.408203 10.3657L0.465383 10.523H0.937118C0.894233 10.9947 0.822758 12.1669 0.922823 13.9395C0.265253 15.8407 0.908528 17.1415 1.50892 18.5424C1.60898 17.0844 1.59469 15.4833 1.15154 13.8823C1.06577 12.1383 1.13725 10.9804 1.18013 10.5373L5.11126 10.5658C5.11126 10.5658 5.08267 11.7523 5.22562 12.8673C8.74219 14.0967 12.2731 12.8673 14.1457 9.8225C13.6025 9.23641 12.5732 8.45018 12.5732 8.45018Z" fill="#A6A6A6"/>
</svg>
