<svg width="112" height="23" viewBox="0 0 112 23" fill="none" xmlns="http://www.w3.org/2000/svg">
<path fill-rule="evenodd" clip-rule="evenodd" d="M91.1836 12.4842C91.1836 10.1746 91.9838 8.05207 93.3209 6.37643L101.681 8.56051C102.91 8.86829 102.015 9.86385 102.015 9.86385L93.576 18.8955C92.0299 17.1178 91.18 14.8402 91.1836 12.4842ZM109.22 7.17607C110.228 8.76312 110.764 10.6041 110.765 12.4842C110.765 17.8911 106.379 22.2734 100.973 22.2734C99.6602 22.2749 98.3608 22.0118 97.1521 21.4997C95.9434 20.9877 94.8504 20.2372 93.9383 19.2933C99.4251 15.8378 104.51 11.807 109.21 7.18791L109.22 7.17607ZM93.8595 5.76086C94.7729 4.79096 95.8753 4.01843 97.0987 3.49092C98.3221 2.9634 99.6406 2.69208 100.973 2.69369C102.333 2.69209 103.679 2.97473 104.924 3.5235C106.169 4.07228 107.285 4.87506 108.202 5.88042C103.671 5.19857 98.9072 5.16246 93.8595 5.76086Z" fill="#A6A6A6"/>
<path fill-rule="evenodd" clip-rule="evenodd" d="M108.063 3.09145C108.062 2.87172 108.106 2.65414 108.19 2.45116C108.274 2.24817 108.397 2.06376 108.553 1.90847C108.708 1.75318 108.893 1.63005 109.096 1.54612C109.299 1.4622 109.517 1.41912 109.736 1.41936C110.067 1.41959 110.39 1.5179 110.665 1.70187C110.94 1.88583 111.155 2.14719 111.281 2.45289C111.407 2.75858 111.44 3.0949 111.376 3.41931C111.311 3.74371 111.151 4.04165 110.917 4.27543C110.683 4.50922 110.385 4.66836 110.061 4.73274C109.736 4.79712 109.4 4.76384 109.094 4.63711C108.789 4.51039 108.528 4.2959 108.344 4.02078C108.16 3.74566 108.062 3.42225 108.063 3.09145Z" fill="#C9C9C9"/>
<path fill-rule="evenodd" clip-rule="evenodd" d="M6.19066 20.2723C9.85447 20.2723 13.2442 16.7464 13.2442 12.1953C13.2442 9.39627 11.6094 6.00711 8.00363 6.00711C3.25311 6.00711 0.671875 10.4202 0.671875 14.322C0.671875 17.2388 2.32739 20.2723 6.19066 20.2723ZM6.5458 17.3963C4.71153 17.3963 4.49549 15.23 4.49549 14.4007C4.49549 10.1054 6.38776 8.88192 7.53071 8.88192C9.12644 8.88192 9.4218 10.8144 9.4218 11.6816C9.4218 14.9914 8.10129 17.3963 6.5458 17.3963ZM20.0362 8.58775H21.0004C21.8882 8.58775 22.46 9.45487 22.46 10.3031C22.46 12.2137 20.8826 12.6682 20.3706 12.6682H20.0362L19.6023 14.9725C23.681 15.2305 26.2043 12.9032 26.2043 9.90885C26.2043 8.13614 24.9631 6.24386 21.8687 6.24386H16.7642L14.18 20.0361H17.8864L20.0362 8.58775ZM32.0658 20.0355L34.2126 8.58775H37.8L38.2321 6.24268H27.3567L26.9228 8.58775H30.5103L28.3617 20.0355H32.0658ZM41.1217 20.0355L43.7023 6.24268H39.9965L37.4159 20.0355H41.1217ZM61.7023 6.24268H56.7346C55.3555 8.94289 53.9557 11.6608 52.4801 15.1506H52.4404C52.2043 11.6608 51.8485 8.94289 51.4745 6.24268H46.4114L43.8296 20.0349H47.0009L48.6949 9.94792H48.7364C49.1489 13.9858 49.5822 17.024 50.0362 20.0349H52.4008C53.9551 17.0234 55.5141 13.9852 57.346 9.94792L57.3851 9.98757L55.375 20.0355H59.1199L61.7023 6.24268ZM64.3558 6.24268L62.779 14.6771C62.1279 18.9127 64.3729 20.2723 67.5478 20.2723C70.3848 20.2723 72.8689 18.6967 73.6354 14.5789L75.1927 6.24327H71.9616L70.6215 13.3963C70.1486 16.016 69.3395 17.3963 68.0989 17.3963C67.2318 17.3963 66.0296 17.2785 66.7577 13.4555L68.0989 6.24327L64.3558 6.24268ZM85.0986 6.99261C84.2711 6.5191 83.6017 6.00711 81.8272 6.00711C79.1477 6.00711 76.9779 7.54366 76.9779 9.86919C76.9779 10.9328 77.372 11.6425 78.3581 13.0216C79.3052 14.322 80.0148 15.1512 80.0148 16.0562C80.0148 16.9245 79.2844 17.8307 78.2013 17.8307C77.2951 17.8307 76.6612 17.4756 75.9941 17.0802L74.6949 18.9334C75.4419 19.7206 77.2164 20.2723 78.7517 20.2723C81.5514 20.2723 83.7585 18.6967 83.7585 16.016C83.7585 15.0127 83.227 13.7502 82.2196 12.4694C81.1365 11.0707 80.7251 10.3226 80.7251 9.67269C80.7251 9.2779 81.1365 8.351 82.2196 8.351C82.8139 8.351 83.2844 8.49009 83.8763 8.7665L85.0986 6.99261Z" fill="#C9C9C9"/>
<path fill-rule="evenodd" clip-rule="evenodd" d="M41.3223 1.897C41.3222 1.68357 41.3642 1.47222 41.4459 1.27505C41.5276 1.07788 41.6474 0.898765 41.7985 0.747957C41.9495 0.597149 42.1288 0.477612 42.3261 0.396188C42.5233 0.314763 42.7348 0.273051 42.9482 0.27344C43.2694 0.273791 43.5832 0.369359 43.8501 0.548062C44.117 0.726765 44.3249 0.980582 44.4475 1.27742C44.5701 1.57426 44.602 1.9008 44.5391 2.21575C44.4762 2.5307 44.3213 2.81993 44.094 3.04687C43.8668 3.27381 43.5773 3.42827 43.2623 3.49073C42.9472 3.55319 42.6207 3.52084 42.3241 3.39776C42.0274 3.27469 41.7739 3.06643 41.5956 2.7993C41.4173 2.53217 41.3221 2.21817 41.3223 1.897Z" fill="#C9C9C9"/>
</svg>
