<svg width="96" height="16" viewBox="0 0 96 16" fill="none" xmlns="http://www.w3.org/2000/svg">
<path d="M95.6719 3.45144L87.9408 12.665H95.6719V15.0083H84.9121V12.5375L92.6592 3.4355H85.4381V1.14007H95.6719V3.45144ZM79.8908 1.14007V3.45144H75.5869V15.0083H73.2596V3.45144H68.9557V1.14007H79.8908ZM61.368 10.3059C63.0098 9.49289 64.03 7.81914 64.046 6.00192C64.046 3.45144 61.9578 1.18789 59.3595 1.14007H54.2426V15.0083H56.5699V10.8319H58.69L63.504 15.7256L65.1299 14.1156L61.368 10.3059ZM59.1682 8.53646H56.554V3.45144H59.1682C60.5869 3.45144 61.7505 4.58322 61.7505 5.98598C61.7505 7.38874 60.6028 8.53646 59.1682 8.53646ZM43.8813 1.14007H41.0757L35.7516 15.0083H38.1905L39.1948 12.2984H45.7622L46.7665 15.0083H49.2054L43.8813 1.14007ZM40.0874 10.1464L42.4785 3.88183L44.8696 10.1464H40.0874ZM31.2405 1.14007V9.92328C31.2405 12.9042 28.8334 15.3271 25.8685 15.3271C22.9036 15.3271 20.4966 12.9042 20.4966 9.92328V1.14007H22.8239V9.92328C22.7761 11.6449 24.1629 13.0317 25.8685 13.0317C27.5741 13.0317 28.961 11.6449 28.9291 9.92328V1.14007H31.2405ZM13.1161 12.3462C14.0247 11.1029 14.5189 9.58853 14.5189 8.0423C14.5189 4.04124 11.267 0.773438 7.2819 0.773438C3.28084 0.773438 0.0449219 4.04124 0.0449219 8.0423C0.0449219 12.0593 3.29678 15.3112 7.2819 15.3112C8.84407 15.3112 10.3106 14.8011 11.4902 13.9562L13.3074 15.7734L14.9174 14.1634L13.1161 12.3462ZM11.4743 10.7044L8.79625 8.01042L7.18626 9.63635L9.84832 12.3144C9.06724 12.7926 8.19051 13.0317 7.2819 13.0317C4.54014 13.0317 2.32441 10.8 2.32441 8.0423C2.32441 5.30054 4.55608 3.05293 7.2819 3.05293C10.0237 3.05293 12.2394 5.2846 12.2394 8.0423C12.2394 8.98279 11.9684 9.90734 11.4743 10.7044Z" fill="#C9C9C9"/>
</svg>
