<svg width="20" height="14" viewBox="0 0 20 14" fill="none" xmlns="http://www.w3.org/2000/svg">
<path d="M9.99984 0C15.72 0 18.324 4.67435 19.0849 6.38358C19.2609 6.77892 19.2609 7.22108 19.0849 7.61641C18.324 9.32565 15.72 14 9.99984 14C4.27966 14 1.67571 9.32565 0.914757 7.61641C0.738754 7.22108 0.738754 6.77892 0.914757 6.38358C1.67571 4.67435 4.27966 0 9.99984 0ZM9.99984 2.33333C7.38906 2.33333 5.6593 3.60343 4.50068 4.99376C3.91419 5.69757 3.49688 6.41089 3.22745 6.94975L3.20251 7L3.22745 7.05025C3.49688 7.58911 3.91419 8.30243 4.50068 9.00624C5.6593 10.3965 7.38906 11.6667 9.99984 11.6667C12.6106 11.6667 14.3404 10.3965 15.499 9.00624C16.0855 8.30243 16.5028 7.58911 16.7722 7.05025L16.7972 7L16.7722 6.94975C16.5028 6.41089 16.0855 5.69757 15.499 4.99376C14.3404 3.60343 12.6106 2.33333 9.99984 2.33333ZM9.99984 3.5C10.3586 3.5 10.7047 3.55396 11.0305 3.65421C10.4228 3.92859 9.99984 4.53991 9.99984 5.25C9.99984 6.2165 10.7833 7 11.7498 7C12.46 7 13.0712 6.57707 13.3456 5.96935C13.4458 6.29518 13.4998 6.64128 13.4998 7C13.4998 8.93299 11.9328 10.5 9.99984 10.5C8.06685 10.5 6.49984 8.93299 6.49984 7C6.49984 5.06701 8.06685 3.5 9.99984 3.5Z" fill="#858C9A"/>
</svg>
