<svg width="30" height="31" viewBox="0 0 30 31" fill="none" xmlns="http://www.w3.org/2000/svg">
<g clip-path="url(#clip0_130_41)">
<path d="M15 30.5C23.2843 30.5 30 23.7843 30 15.5C30 7.21573 23.2843 0.5 15 0.5C6.71573 0.5 0 7.21573 0 15.5C0 23.7843 6.71573 30.5 15 30.5Z" fill="#EE3546"/>
<path d="M15.0478 19.9318C15.0785 19.2023 14.0592 18.8409 13.6194 19.4068C12.6717 20.5523 10.8921 22.6318 10.7881 22.8892C10.5171 23.6699 11.7887 24.1676 12.595 24.4693C13.4711 24.7989 14.0961 24.9318 14.47 24.8682C14.5866 24.8525 14.6968 24.8055 14.7889 24.7323C14.881 24.6591 14.9516 24.5623 14.9933 24.4523C15.0563 24.2511 15.0495 20.1023 15.0478 19.9318ZM14.6268 6.62615C14.5961 6.50688 14.5314 6.3991 14.4407 6.31589C14.3499 6.23267 14.2369 6.17761 14.1154 6.1574C13.3109 5.95455 10.241 6.80683 9.66997 7.42728C9.58318 7.50804 9.51944 7.61044 9.48529 7.72397C9.45114 7.8375 9.44781 7.95807 9.47565 8.07331L13.3705 14.3222C14.1666 15.5955 15.1705 15.2119 15.1006 13.7955C15.0495 12.8597 14.6762 6.94149 14.6285 6.63637L14.6268 6.62615ZM12.9785 18.0279C13.7149 17.8011 13.6603 16.7222 13.033 16.4699C11.3626 15.7881 9.08019 14.8182 8.90463 14.8182C8.22281 14.7773 8.08815 15.7557 8.01997 16.4563C7.95857 17.0346 7.95572 17.6177 8.01144 18.1966C8.06258 18.754 8.1819 19.3233 8.74099 19.3574C8.98133 19.3574 12.9461 18.0398 12.9819 18.0279H12.9785ZM21.6478 15.5392C21.7476 15.4645 21.8255 15.3643 21.8732 15.2491C21.9209 15.134 21.9366 15.0081 21.9188 14.8847C21.8353 14.0852 20.4887 12.0654 19.8154 11.7381C19.713 11.6784 19.5958 11.6489 19.4773 11.6528C19.3588 11.6567 19.2438 11.694 19.1455 11.7602C18.8933 11.9307 16.6143 15.2324 16.4796 15.3688C16.0364 15.9688 16.6705 16.8313 17.3319 16.6557L17.3217 16.6796C17.591 16.5892 21.445 15.6705 21.6478 15.5392ZM17.5944 18.3006C16.9126 18.0551 16.2563 18.933 16.6569 19.5364C16.7711 19.729 18.8506 23.2114 19.0433 23.3409C19.1329 23.4138 19.2415 23.4595 19.3562 23.4728C19.4709 23.4861 19.5871 23.4664 19.691 23.4159C20.3984 23.133 21.9291 21.1693 22.0279 20.4023C22.0544 20.286 22.0475 20.1647 22.008 20.0522C21.9685 19.9397 21.898 19.8406 21.8046 19.7665C21.6512 19.6284 17.6029 18.3006 17.6029 18.3006H17.5944Z" fill="white"/>
</g>
<defs>
<clipPath id="clip0_130_41">
<rect width="30" height="30" fill="white" transform="translate(0 0.5)"/>
</clipPath>
</defs>
</svg>
